SplineFontDB: 1.0
FontName: Untitled1
FullName: Untitled1
FamilyName: Untitled1
Weight: Medium
Copyright: Created by KANOU Hiroki with FontForge 1.0 (http://fontforge.sf.net)
Comments: 2004-6-15: Created.
Version: 001.000
ItalicAngle: 0
UnderlinePosition: -102
UnderlineWidth: 51
Ascent: 819
Descent: 205
NeedsXUIDChange: 1
XUID: [1021 314 1764104691 10527631]
OS2WinAscent: 0
OS2WinAOffset: 0
OS2WinDescent: 0
OS2WinDOffset: 0
ScriptLang: 1
 1 kana 2 JAN  dflt 
TableOrder: GSUB 1
	'vert'
Encoding: unicode
UnicodeInterp: none
DisplaySize: -24
AntiAlias: 1
FitToEm: 1
WinInfo: 10048 16 12
BeginChars: 65538 65
StartChar: currency
Encoding: 164 164 65535
Width: 1024
Flags: HW
Fore
281.5 166 m 0
 233.5 221 210.5 286 210.5 361 c 0
 210.5 437 234.5 501 284.5 557 c 1
 182.5 660 l 1
 219.5 692 l 1
 318.5 594 l 1
 373.5 641 438.5 664 512.5 664 c 0
 587.5 664 652.5 640 708.5 592 c 0
 808.5 692 l 1
 841.5 656 l 1
 742.5 558 l 1
 791.5 502 816.5 436 816.5 361 c 0
 816.5 287 792.5 223 745.5 168 c 0
 840.5 75 l 1
 804.5 38 l 1
 710.5 133 l 1
 654.5 83 588.5 58 512.5 58 c 0
 437.5 58 371.5 83 316.5 131 c 0
 223.5 38 l 1
 188.5 73 l 1
 281.5 166 l 0
261.5 361 m 24
 261.5 220 370.079 111 511.5 111 c 16
 660 111 762.5 219.296 762.5 361 c 16
 762.5 502 653.487 612 511.5 612 c 16
 368 612 261.5 502 261.5 361 c 24
EndSplineSet
EndChar
StartChar: mu
Encoding: 181 181 65535
Width: 512
Flags: HW
Fore
142.427 81.8466 m 1
 141 -38 l 2
 141 -64 163.333 -80.667 208 -88 c 1
 208 -114 l 1
 139.333 -112 71.667 -112 5 -114 c 1
 5 -88 l 1
 49 -80.667 71 -64 71 -38 c 2
 71 443 l 2
 71 461.667 50.667 472.333 10 475 c 1
 10 500 l 1
 80 506 119.667 517.667 129 535 c 1
 141 535 l 1
 141 213 l 2
 141 173.667 150.167 143.667 168.5 123 c 0
 186.833 102.333 205.333 92 228 92 c 0
 254.667 92 276.333 98.833 297 112.5 c 0
 317.667 126.167 335 151.167 349 187.5 c 0
 363 223.833 370 259.333 370 294 c 2
 370 443 l 2
 370 461.667 349.667 472.333 309 475 c 1
 309 500 l 1
 379 506 418.667 517.667 428 535 c 1
 440 535 l 1
 440 135 l 2
 440 116.333 457.667 105.667 493 103 c 1
 493 82 l 1
 427.667 76 390.667 64.333 382 47 c 1
 370 47 l 1
 370 147 l 1
 356 117 336.5 94.167 311.5 78.5 c 0
 286.5 62.833 260 55 228 55 c 0
 196.755 55 168.866 63.949 142.427 81.8466 c 1
EndSplineSet
EndChar
StartChar: AE
Encoding: 198 198 65535
Width: 896
Flags: HW
Fore
437.167 620 m 1
 276.995 310 l 1
 436.995 310 l 1
 437.167 620 l 1
424.183 690.645 m 1
 410.596 701.808 387.478 709.59 357.004 714 c 1
 357.004 740 l 1
 509.671 738 661.004 738 809.004 740 c 1
 817.004 692 829.004 633 845.004 563 c 1
 824.004 559 l 1
 801.337 617 779.837 655.5 759.504 674.5 c 0
 739.171 693.5 716.337 703 691.004 703 c 2
 548.004 703 l 2
 527.267 703 514.592 695.138 509.981 679.414 c 1
 509.832 414 l 1
 691.004 414 l 2
 716.337 414 733.337 439 742.004 489 c 1
 769.004 489 l 1
 767.004 424.333 767.004 359.667 769.004 295 c 1
 742.004 295 l 1
 733.337 349.667 716.337 377 691.004 377 c 2
 509.812 377 l 1
 509.651 96 l 1
 508.165 81.8135 513.252 70.4023 524.912 61.7734 c 0
 530.979 58.5908 538.675 57 548.004 57 c 2
 707.004 57 l 2
 732.337 57 755.171 65.167 775.504 81.5 c 0
 795.837 97.833 817.337 137.667 840.004 201 c 1
 861.004 197 l 1
 845.671 127 833.671 68 825.004 20 c 1
 673.863 21.9717 524.454 22 368.778 20.085 c 2
 365.996 20 l 1
 362.004 20 l 1
 362.004 46 l 1
 399.203 51.3838 422.746 61.8037 432.634 77.25 c 0
 435.341 82.5732 436.595 88.4883 436.394 95 c 1
 436.461 277 l 1
 260.461 277 l 1
 164.651 96 l 1
 150.595 70 165.283 53.333 208.722 46 c 1
 201.996 20 l 1
 145.182 22 75.8477 22 21.9961 20 c 1
 28.7207 46 l 1
 71.9502 53.333 100.929 70 115.651 96 c 1
 411.806 665 l 1
 416.788 674.591 420.913 683.14 424.183 690.645 c 1
EndSplineSet
EndChar
StartChar: Ccedilla
Encoding: 199 199 65535
Width: 512
Flags: HW
Fore
18 375 m 0
 18 474.333 40.6667 560.833 86 634.5 c 0
 131.333 708.167 192.667 745 270 745 c 0
 298.667 745 323 741 343 733 c 0
 363 725 381.667 721 399 721 c 0
 416.333 721 433 728.667 449 744 c 1
 455 744 l 1
 463 676.667 475 595.667 491 501 c 1
 463 494 l 1
 453 530.667 442 562.5 430 589.5 c 0
 418 616.5 397.167 643 367.5 669 c 0
 337.833 695 305.333 708 270 708 c 0
 208.667 708 164 674.167 136 606.5 c 0
 108 538.833 94 461.667 94 375 c 0
 94 283.667 112.333 208.5 149 149.5 c 0
 185.667 90.5 229.333 61 280 61 c 0
 319.333 61 356.5 77.1667 391.5 109.5 c 0
 426.5 141.833 448.667 185 458 239 c 1
 464 249 470.833 253.333 478.5 252 c 0
 486.167 250.667 490.667 244 492 232 c 1
 484.667 177.333 461.667 127.333 423 82 c 0
 384.333 36.6667 330.667 14 262 14 c 0
 198 14 141.333 47.8333 92 115.5 c 0
 42.6667 183.167 18 269.667 18 375 c 0
237 26 m 1
 286 26 l 1
 292 5 301 -4 324 -8 c 0
 356 -13 378 -28 378 -68 c 0
 378 -107 337 -138 279 -138 c 1
 248 -140 199 -123 182 -89 c 1
 220 -65 l 1
 237 -84 242 -92 279 -93 c 0
 301 -93 331 -86 331 -68 c 0
 331 -52 322 -47 305 -44 c 0
 264 -37 250 -5 237 26 c 1
EndSplineSet
EndChar
StartChar: Thorn
Encoding: 222 222 65535
Width: 512
Flags: HW
Fore
151 538 m 1
 151 245 l 1
 214 245 l 2
 299 245 355 260 382 292 c 0
 410 322 424 357 424 392 c 0
 424 427 410 460 382 492 c 0
 355 522 299 538 214 538 c 2
 151 538 l 1
151 208 m 1
 151 96 l 2
 151 70 182 53 245 46 c 1
 245 20 l 1
 158 22 78 22 5 20 c 1
 5 46 l 1
 56 53 81 70 81 96 c 2
 81 664 l 2
 81 690 56 707 5 714 c 1
 5 740 l 1
 75 737 164 738 245 740 c 1
 245 714 l 1
 182 707 151 690 151 664 c 2
 151 575 l 1
 214 575 l 2
 307 575 377 558 424 524 c 0
 472 489 496 445 496 392 c 0
 496 339 472 294 424 260 c 0
 377 225 307 208 214 208 c 2
 151 208 l 1
EndSplineSet
EndChar
StartChar: germandbls
Encoding: 223 223 65535
Width: 512
Flags: HW
Fore
67 96 m 17
 67 70 46.7334 51.333 6.2002 44 c 1
 6.2002 18 l 1
 28.0601 21.6608 53.8037 23.1336 77.8242 23.1336 c 0
 99.7349 23.1336 120.212 21.9081 135 20 c 1
 135 96 l 1
 135 596 l 1
 135 620 140.939 649.208 150.5 661.5 c 1
 168.474 683.25 200.9 704.374 240.934 704.374 c 16
 275 704.374 309.584 694.96 339 664.5 c 24
 367.262 635.234 374 607 374 569 c 0
 374 528.333 363.167 494.667 333.5 468 c 0
 303.833 441.333 280.667 428 208 428 c 1
 208 392 l 1
 293.333 392 334.5 376.667 367.5 346 c 0
 400.5 315.333 417 273.333 417 220 c 0
 417 175.333 411.045 140.017 383.847 104.878 c 1
 354.698 68.3724 324.001 51.2994 287.855 51.2994 c 0
 271 51.2994 256.5 53 243.33 61.9023 c 8
 228.506 71.9229 223.5 91 223.5 102 c 8
 223.5 112.887 227.729 122 227.729 128.886 c 8
 227.729 138.723 225.567 144.666 218.792 151.798 c 16
 211 160 204 163.259 191.616 163.259 c 8
 179.969 163.259 172.422 161.671 164.216 153.405 c 24
 153.076 142.184 151.111 134 151.111 116.111 c 0
 151.111 101 156.067 91.5283 165.981 76.9639 c 0
 177.453 60.1104 197 40.5 214.208 29.9209 c 0
 226.44 22.4011 254.104 13.208 282.054 13.2083 c 16
 345 13.2083 387.111 32.6557 439.976 84.7881 c 1
 470 123 493 164 493 219 c 0
 493 281.667 471.667 328 429 358 c 0
 386.333 388 346 405.667 308 411 c 1
 332.667 415.667 358.714 426.096 394.5 457.5 c 0
 419 479 448 520.667 448 568 c 0
 448 626.5 423 656.5 391.5 688 c 0
 354.5 725 311.667 740 257 740 c 0
 222.333 740 192.833 734.5 168.5 723.5 c 0
 144.167 712.5 124.5 702 107 682 c 0
 85.9897 657.988 67 636 67 582.5 c 1
 67 96 l 17
EndSplineSet
EndChar
StartChar: ae
Encoding: 230 230 65535
Width: 832
Flags: HW
Fore
424 309 m 1
 721 309 l 1
 714 394 660 473 572 473 c 0
 527 473 492 456 468 420 c 0
 443 386 428 348 424 309 c 1
408 428 m 1
 453 481 505 510 572 510 c 0
 698 510 784 406 784 280 c 1
 422 280 l 1
 422 242 l 1
 426 194 444 153 475 120 c 0
 510 80 548 61 587 61 c 0
 609 61 633 66 658 76 c 0
 683 86 704 104 720 130 c 0
 736 155 746 176 751 192 c 0
 759 209 780 209 779 186 c 1
 775 167 765 144 748 116 c 0
 716 62 658 14 574 14 c 0
 514 14 461 38 417 86 c 0
 411 92 406 102 401 108 c 1
 374 76 320 46 299 34 c 0
 278 22 249 15 213 14 c 0
 162 14 122 26 92 50 c 0
 63 74 48 102 48 135 c 0
 48 160 56 185 71 210 c 0
 87 236 117 261 162 284 c 0
 207 307 271 321 352 326 c 1
 352 386 350 433 329 452 c 0
 313 466 296 473 277 473 c 0
 233 473 191 462 173 437 c 0
 165 425 161 413 162 402 c 0
 164 379 127 356 105 358 c 0
 81 360 71 382 80 410 c 0
 91 448 152 483 193 497 c 0
 220 506 248 510 277 510 c 0
 306 510 338 498 371 474 c 0
 387 463 400 448 408 428 c 1
352 295 m 1
 277 287 228 277 204 265 c 0
 160 243 124 198 124 136 c 0
 124 87 167 45 214 45 c 0
 268 46 322 76 339 114 c 0
 348 133 352 153 352 172 c 1
 353 214 352 295 352 295 c 1
EndSplineSet
EndChar
StartChar: ccedilla
Encoding: 231 231 65535
Width: 512
Flags: HW
Fore
267 510 m 0
 294.333 510 318.167 506.667 338.5 500 c 0
 358.833 493.333 376.833 485 392.5 475 c 0
 408.167 465 421 454.333 431 443 c 0
 441 431.667 448.167 421.5 452.5 412.5 c 0
 456.833 403.5 458.667 393.667 458 383 c 0
 457.333 372.333 453.333 363.833 446 357.5 c 0
 438.667 351.167 429.833 348 419.5 348 c 0
 409.167 348 399.5 351.167 390.5 357.5 c 0
 381.5 363.833 375.667 371.667 373 381 c 0
 370.333 390.333 369.833 399.833 371.5 409.5 c 0
 373.167 419.167 369.333 429.833 360 441.5 c 0
 350.667 453.167 337.667 461.333 321 466 c 0
 304.333 470.667 286.333 473 267 473 c 0
 213 473 171.833 452.833 143.5 412.5 c 0
 115.167 372.167 101 323.667 101 267 c 0
 101 207.667 120.5 158.5 159.5 119.5 c 0
 198.5 80.5 239.333 61 282 61 c 0
 306 61 331.667 66 359 76 c 0
 386.333 86 408.667 103.833 426 129.5 c 0
 443.333 155.167 454.667 176 460 192 c 0
 464.667 201.333 471 205.333 479 204 c 0
 487 202.667 490.667 196.667 490 186 c 1
 486 167.333 474.833 143.833 456.5 115.5 c 0
 438.167 87.1667 413 63.1667 381 43.5 c 0
 349 23.8333 311.333 14 268 14 c 0
 202 14 145 37.8333 97 85.5 c 0
 49 133.167 25 193.667 25 267 c 0
 25 332.333 49.3333 389.167 98 437.5 c 0
 146.667 485.833 203 510 267 510 c 0
237 26 m 1
 286 26 l 1
 292 5 301 -4 324 -8 c 0
 356 -13 378 -28 378 -68 c 0
 378 -107 337 -138 279 -138 c 1
 248 -140 199 -123 182 -89 c 1
 220 -65 l 1
 237 -84 242 -92 279 -93 c 0
 301 -93 331 -86 331 -68 c 0
 331 -52 322 -47 305 -44 c 0
 264 -37 250 -5 237 26 c 1
EndSplineSet
EndChar
StartChar: eth
Encoding: 240 240 65535
Width: 512
Flags: HW
Fore
242 51 m 0
 287 51 322 75 347 124 c 0
 372 173 386 225 390 282 c 1
 379 318 366 344 352 361 c 0
 336 378 319 391 298 402 c 0
 278 412 252 417 220 417 c 0
 175 417 142 398 122 360 c 0
 103 323 93 280 93 232 c 0
 93 191 107 150 136 110 c 0
 165 71 200 51 242 51 c 0
354 601 m 1
 151 534 l 1
 125 575 l 1
 329 643 l 1
 300 685 265 706 230 711 c 1
 219 717 214 721 214 731 c 16
 214 737 225 744 233 744 c 1
 262 744 333 714 382 661 c 1
 461 688 l 1
 492 647 l 1
 412 620 l 1
 451 557 471 478 471 383 c 0
 471 254 449 161 404 102 c 0
 359 43 305 14 242 14 c 0
 179 14 126 37 84 84 c 0
 41 130 20 179 20 232 c 0
 20 293 39 345 78 388 c 0
 117 432 164 454 220 454 c 0
 262 454 294 448 317 434 c 0
 340 422 356 409 368 396 c 0
 378 383 388 372 395 362 c 1
 395 384 l 1
 395 470 381 543 354 601 c 1
EndSplineSet
EndChar
StartChar: thorn
Encoding: 254 254 65535
Width: 512
Flags: HW
Fore
148 -38 m 2
 148 -64 170.333 -80.6667 215 -88 c 1
 215 -114 l 1
 146.333 -112 78.6667 -112 12 -114 c 1
 12 -88 l 1
 56 -80.6667 78 -64 78 -38 c 2
 78 681 l 2
 78 699.667 60.333 710.333 25 713 c 1
 25 738 l 1
 89.667 744 126.667 755.667 136 773 c 1
 148 773 l 1
 148 426 l 1
 164 448 184 467.333 208 484 c 0
 232 500.667 257.667 509 285 509 c 0
 336.333 509 382.833 489 424.5 449 c 0
 466.167 409 487 353.667 487 283 c 0
 487 222.333 466 169.667 424 125 c 0
 382 80.3333 335.667 58 285 58 c 0
 257 58 232.5 62.1667 211.5 70.5 c 0
 190.5 78.8333 169.333 90.6667 148 106 c 1
 148 -38 l 2
285 95 m 0
 315 95 343.5 112.667 370.5 148 c 0
 397.5 183.333 411 228.333 411 283 c 0
 411 345 396.333 390.667 367 420 c 0
 337.667 449.333 310.333 464 285 464 c 0
 265.667 464 248.167 460.833 232.5 454.5 c 0
 216.833 448.167 198.833 432 178.5 406 c 0
 158.167 380 148 352 148 322 c 2
 148 156 l 1
 174.667 130.667 198.833 114.167 220.5 106.5 c 0
 242.167 98.8333 263.667 95 285 95 c 0
EndSplineSet
EndChar
StartChar: eng
Encoding: 331 331 65535
Width: 512
Flags: HW
Fore
371 352 m 2
 371 398 363.333 429.667 348 447 c 128
 332.667 464.333 312.667 473 288 473 c 0
 265.333 473 244.167 467.5 224.5 456.5 c 128
 204.833 445.5 187 428.167 171 404.5 c 128
 155 380.833 146.667 349.667 146 311 c 1
 146 166 l 2
 146 140 159 120 193 116 c 1
 193 90 l 1
 141 96 81 96 29 90 c 1
 29 116 l 1
 63 117 75.9971 139.271 76 166 c 1
 76 426 l 2
 76 444.667 58.3333 455.333 23 458 c 1
 23 483 l 1
 87.6667 489 124.667 500.667 134 518 c 1
 146 518 l 1
 146 422 l 1
 165.333 452.667 187.667 475 213 489 c 128
 238.333 503 263.667 510 289 510 c 0
 321 510 354.333 497.167 389 471.5 c 128
 423.667 445.833 441 407 441 355 c 1
 440.11 255.557 439.832 155.5 440 55 c 1
 440 -10.333 412.833 -56.833 380.5 -84.5 c 128
 348.167 -112.167 300 -126 270 -126 c 0
 225 -126 191.5 -123.333 176.5 -118 c 128
 161.5 -112.667 143.333 -105.667 130 -97 c 128
 116.667 -88.333 105.667 -78 97 -66 c 128
 88.333 -54 83.333 -42.833 82 -32.5 c 128
 80.667 -22.167 84 -12.333 92 -3 c 0
 100 6.33301 109.833 11.167 121.5 11.5 c 128
 133.167 11.833 144 7.16699 154 -2.5 c 0
 164 -12.167 169 -21.167 169 -29.5 c 128
 169 -37.833 168.833 -45.333 168.5 -52 c 128
 168.167 -58.667 172.167 -65.167 178.5 -71.5 c 128
 184.833 -77.833 202.667 -82.333 212 -85 c 128
 221.333 -87.667 240 -89 270 -89 c 0
 285.333 -89 315.167 -80 331.5 -62 c 128
 347.833 -44 371 -5.66699 371 53 c 2
 371 352 l 2
EndSplineSet
EndChar
StartChar: florin
Encoding: 402 402 65535
Width: 512
Flags: HW
Fore
207.684 351 m 1
 88.6836 351 l 1
 88.6836 388 l 1
 207.684 388 l 1
 208.684 518 l 2
 209.145 577.991 233.684 643 261.184 675 c 0
 286.937 704.967 324.351 729 365.684 729 c 0
 391.017 729 406.684 726.333 422.684 721 c 0
 438.684 715.667 452.958 708.982 466.452 698.768 c 0
 479.946 688.553 489.234 676.108 496.316 661.436 c 0
 503.397 646.763 504 628 494.019 617.971 c 0
 482.241 606.137 473.188 597.877 457.365 600.599 c 0
 441.543 603.321 430.659 608.959 424.715 617.509 c 0
 418.771 626.06 416.566 635.287 418.103 645.19 c 0
 419.639 655.095 418.684 665 416.063 673.563 c 0
 413.229 682.829 408.351 685.167 399.684 689.5 c 0
 391.017 693.833 383.684 696 365.684 696 c 0
 340.351 696 315.803 666.931 308.184 654 c 0
 291.684 626 279.176 581.991 278.684 518 c 2
 277.684 388 l 1
 428.684 388 l 1
 428.684 351 l 1
 277.684 351 l 1
 278.316 206 l 2
 277.3 93.0088 273.784 32.3174 238.816 -17 c 0
 214 -52 168 -71 132.316 -71 c 0
 106.983 -71 103.316 -68.333 87.3164 -63 c 0
 71.3164 -57.667 59.042 -50.9824 45.5479 -40.7676 c 0
 32.0537 -30.5527 22.7656 -18.1084 15.6836 -3.43555 c 0
 8.60254 11.2373 11.8428 29.8379 16.9814 40.0293 c 0
 21 48 38.8115 60.123 54.6348 57.4014 c 0
 70.457 54.6787 81.3408 49.041 87.2852 40.4912 c 0
 93.2295 31.9404 95.4336 22.7129 93.8975 12.8096 c 0
 92.3613 2.90527 93.3164 -7 95.9365 -15.5635 c 0
 98.7715 -24.8291 101 -28 108.316 -32.5 c 0
 114.002 -35.9971 113.316 -38 131.316 -38 c 0
 167 -38 179.619 -14.8604 188.816 -3 c 0
 202 14 207.12 73.0107 208.316 206 c 2
 207.684 351 l 1
EndSplineSet
EndChar
StartChar: uni0251
Encoding: 593 593 65535
Width: 512
Flags: HW
Fore
377 490 m 1
 400 508 417 515 434 516 c 1
 441 517 445 513 447 510 c 1
 447 99 l 2
 447 80.3333 463.667 69.6667 497 67 c 1
 497 42 l 1
 434.333 36 398.667 24.3333 390 7 c 1
 377 7 l 1
 377 68 l 1
 355.667 48 332.833 34 308.5 26 c 128
 284.167 18 259.333 14 234 14 c 0
 184.667 14 138.5 38.5 95.5 87.5 c 128
 52.5 136.5 31 194.667 31 262 c 0
 31 334 52 393 94 439 c 128
 136 485 184.667 508.667 240 510 c 0
 266 510 289.667 505.167 311 495.5 c 128
 332.333 485.833 354.333 467 377 439 c 1
 376.644 474.356 377 490 377 490 c 1
236 473 m 0
 195.333 471.667 163.667 450.667 141 410 c 128
 118.333 369.333 107 320 107 262 c 0
 107 205.333 122.5 157.667 153.5 119 c 0
 184.5 80.3333 214.667 61 244 61 c 0
 265.333 61 286.667 63.6667 308 69 c 128
 329.333 74.3333 346.167 85.8333 358.5 103.5 c 0
 370.833 121.167 377 139 377 157 c 2
 377 361 l 1
 355 411 332.833 442.167 310.5 454.5 c 128
 288.167 466.833 263.333 473 236 473 c 0
EndSplineSet
EndChar
StartChar: uni025A
Encoding: 602 602 65535
Width: 512
Flags: HW
Fore
308.233 252.9 m 1
 75.5732 199.876 l 1
 97.8047 108.346 126.375 50 190.125 50 c 128
 253.875 50 314 144 308.233 252.9 c 1
434 202 m 1
 447.806 160.509 474 179 496 176 c 1
 503 172 497.852 164.711 498 164 c 1
 498.068 163.005 487 146 460.875 146 c 0
 437 146 342.111 176.565 439.875 283.965 c 1
 366.375 263 l 1
 366 122 286.125 14 190.125 14 c 0
 96.375 14 43.9717 89.7148 21.0508 219.709 c 1
 305.414 279.851 l 1
 278 420 234.375 452 178.125 452 c 0
 114.375 452 61.875 406 41.625 324 c 1
 37.875 315 35.625 313 27.375 313 c 0
 22.125 314 19.125 319 19.125 328 c 0
 19.125 361 58.875 434 102.375 470 c 0
 125.625 489 156.375 498 187.875 498 c 0
 281.768 498 354 407 365.172 293.154 c 1
 470.875 316 l 1
 500.73 318.741 500 301 478.875 286 c 0
 452.501 267.273 427 223 434 202 c 1
EndSplineSet
EndChar
StartChar: uni0292
Encoding: 658 658 65535
Width: 512
Flags: HW
Fore
458 674 m 1
 459 743 459 735 459 735 c 1
 303.667 733 223 733 67 735 c 1
 59 687 47 628 31 558 c 1
 52 554 l 1
 74.667 612 96.167 650.5 116.5 669.5 c 128
 136.833 688.5 159.667 698 185 698 c 2
 388 698 l 1
 326.981 596.386 276 536 188 433 c 1
 188 397 l 1
 255 397 315 393 359.5 351 c 0
 392.262 320.079 409 279.333 409 226 c 0
 409 181.333 394.5 136.167 365.5 102.5 c 0
 336.5 68.8333 297.667 52 249 52 c 0
 218.333 52 190.833 56 166.5 64 c 128
 142.167 72 125.833 81.6667 117.5 93 c 0
 109.167 104.333 107.333 115.667 112 127 c 128
 116.667 138.333 121.833 148.667 127.5 158 c 128
 133.167 167.333 134.667 176.833 132 186.5 c 128
 129.333 196.167 122.167 204.5 110.5 211.5 c 0
 98.8333 218.5 87.3333 220.333 76 217 c 128
 64.6667 213.667 55 206.5 47 195.5 c 128
 39 184.5 36.1667 168.333 38.5 147 c 128
 40.8333 125.667 51.5 104.5 70.5 83.5 c 128
 89.5 62.5 112.667 45.6667 140 33 c 128
 167.333 20.3333 203.667 14 249 14 c 0
 320.333 14 377.5 35.8333 420.5 79.5 c 0
 463.5 123.167 485 175.667 485 225 c 0
 485 287.667 460.083 336.461 421 371 c 1
 377.997 410.85 300 436 258 436 c 1
 367.021 556.1 401.371 593.362 458 674 c 1
EndSplineSet
EndChar
StartChar: sigma1
Encoding: 962 962 65535
Width: 1000
VWidth: 1000
Flags: HW
Fore
529.729 34.3672 m 1
 319.643 57 311.016 263.24 318.055 310.76 c 1
 318.055 388.199 400.037 494.383 545.123 494.383 c 1
 628.643 495 670.643 480 682.643 435 c 1
 688.643 405 661.643 387 635.643 433 c 1
 625.643 453 603.643 473 545.729 472.367 c 1
 459.643 470 361.643 407.561 361.643 300 c 1
 361.643 187.561 403.729 81.3672 539.729 65.3672 c 1
 568.559 60.0469 592.643 54 622.643 33 c 8
 649.015 14.54 660.356 -14.6445 649.643 -45 c 16
 631.643 -96 545.643 -106 515.643 -103 c 1
 458.643 -100 475.643 -66 514.643 -66 c 1
 553.482 -62.4688 595.643 -60 601.643 -36 c 8
 611.159 2.06738 574.643 27 529.729 34.3672 c 1
EndSplineSet
EndChar
StartChar: uni03D0
Encoding: 976 976 65535
Width: 1000
VWidth: 1000
Flags: HW
Fore
417.011 501.053 m 1
 433.835 503.516 449.565 505.872 460.111 509.889 c 0
 503.111 525.889 572.111 549.889 621.111 621.889 c 0
 654.938 661.062 627.889 712.111 627.889 712.111 c 0
 599 738 555.889 715.111 521.889 684.111 c 0
 494.033 658.199 450.646 579.814 417.011 501.053 c 1
400.889 471.111 m 1
 394.191 453.826 386.521 422.274 386.115 421.233 c 1
 429.213 415.737 439.688 432.438 538.111 406.889 c 0
 611.085 381.914 688.396 293.604 675.889 171.111 c 0
 666.888 51.1104 556.89 -38.8887 447.889 -38.8887 c 0
 313.913 -36.9141 242 105 274.111 249.889 c 0
 286.672 306.565 298.894 342.482 318.111 399.889 c 0
 362 531 425 648 482 699 c 0
 529.427 741.435 608 768 642.111 744.889 c 0
 672.795 724.1 704 651 671.889 609.111 c 0
 604.551 521.271 545 498 479.889 481.111 c 0
 454.169 474.44 430.89 474.111 400.889 471.111 c 1
377.889 395.111 m 1
 353 321 342.889 271.111 334.889 230.111 c 0
 314.396 100.604 339.086 9.91406 456.111 11.8887 c 0
 527.111 11.8887 598.01 89.8311 603.111 175.889 c 0
 611 309 584 336 527.111 373.889 c 1
 527.108 373.89 452.003 407.999 377.889 395.111 c 1
EndSplineSet
EndChar
StartChar: theta1
Encoding: 977 977 65535
Width: 1024
Flags: HW
Fore
661.497 473.207 m 1
 686.624 477.414 711.142 482.615 730.128 487.889 c 1
 765 498 762 480 735.128 463.889 c 1
 714.982 457.39 689.285 449.752 661.799 443.318 c 1
 661.455 374.904 654.211 307.241 641.229 249.889 c 0
 603 81 495 -39 350.778 -38.8887 c 0
 241.776 -38.8045 230.809 115.222 270.292 235.223 c 0
 307.274 357.716 326.669 403.111 278.669 445.111 c 0
 251.482 468.899 212.669 430.111 185.669 418.111 c 1
 177.812 422.315 172.141 431.438 176.669 439.111 c 1
 218.669 478.111 266.176 495.264 296.669 478.111 c 0
 344.669 451.111 390.892 373.111 345 240 c 0
 315.331 153.942 292.071 11.8887 363.07 11.8887 c 0
 542.902 8.83349 587.451 228.614 598.071 431.811 c 1
 570.504 428.589 543.955 428.243 522 433 c 0
 462 446 400.714 505.071 384 597 c 0
 372 663 402 723 453 750 c 1
 504.282 778.657 588 747 614.793 699 c 1
 644.271 649.27 659.306 561.421 661.497 473.207 c 1
599.36 465.226 m 1
 601.413 548.053 593.961 633.055 568.889 684.111 c 1
 555.321 715.719 507 729 474.202 712.111 c 0
 448.353 698.801 424.545 646.883 437.939 604.777 c 16
 463 526 509.251 477.468 553.403 465.777 c 0
 563.633 463.068 584.527 464.02 599.36 465.226 c 1
EndSplineSet
EndChar
StartChar: phi1
Encoding: 981 981 65535
Width: 1000
VWidth: 1000
Flags: HW
Fore
373.184 466.406 m 1
 322 442 280.983 341.765 280.983 299.395 c 0
 280.983 154.31 387.167 78.3262 464.606 78.3262 c 1
 512.127 71.2871 726 90 738 298 c 1
 744 336 726 471 616.051 472.57 c 1
 597 469 550 486 495.407 317.688 c 0
 441.134 150.359 412.692 36.5244 380.185 -105.691 c 1
 371 -132 417.767 -139.913 421.287 -118.793 c 1
 447.26 -2.7627 506.332 237.016 535.287 312.406 c 0
 556 366.337 577.527 431.406 619.767 441.967 c 1
 711 438 715.319 322.831 710 294 c 1
 694 158 587.807 118.914 475.366 118.914 c 1
 367.807 118.914 301.397 224.766 308 304 c 1
 298.763 340.741 346 422 386 446 c 1
 408 458 398 476 373.184 466.406 c 1
EndSplineSet
EndChar
StartChar: uni03F5
Encoding: 1013 1013 65535
Width: 1000
VWidth: 1000
Flags: HW
Fore
632.359 66.2842 m 1
 599.372 51.5234 552 33 499.402 38.2002 c 0
 444.269 43.6514 395.126 59.7422 366.973 102.825 c 0
 338.819 145.908 326.43 194.033 335.805 247.2 c 0
 345.05 299.634 371.379 347.575 414.79 391.025 c 0
 458.201 434.476 519 456.2 570.107 456.2 c 2
 661.708 456.2 l 1
 656.858 428.7 l 1
 590.258 428.7 l 2
 543 428.7 496.406 410.733 461.104 374.8 c 128
 425.802 338.867 403.192 301.101 393.276 261.5 c 1
 630.377 261.5 l 1
 625.528 234 l 1
 388.428 234 l 1
 383.817 193.3 396.919 154.983 419.733 119.05 c 0
 442.548 83.1172 480 65.1504 533.154 65.1504 c 0
 564 65.1504 590 78 623 87 c 1
 632.359 66.2842 l 1
EndSplineSet
EndChar
StartChar: Euro
Encoding: 8364 8364 65535
Width: 1024
VWidth: 1000
Flags: HW
Fore
234 452 m 1
 272 614 415 737 581 737 c 0
 634 737 677 730 711 719 c 0
 745 709 772 703 791 703 c 128
 810 703 831 714 855 737 c 1
 863 737 l 1
 874 655 891 567 911 472 c 1
 886 461 l 1
 838 581 803 626 729 664 c 0
 684 687 635 699 581 699 c 0
 455 699 344 592 311 452 c 1
 672 452 l 1
 668 413 l 1
 304 413 l 1
 297.941 377.924 298.107 339.087 308 296 c 1
 653 296 l 1
 648 257 l 1
 318 257 l 1
 360 137 469 53 595 53 c 0
 727 53 850 130 893 238 c 1
 899 248 906 253 913 253 c 0
 926 253 935 245 935 233 c 0
 935 204 880 124 809 72 c 0
 749 27 668 5 567 5 c 0
 416 5 286 111 241 257 c 1
 89 257 l 1
 94 296 l 1
 231 296 l 1
 224.462 333.59 222.951 373.637 228 413 c 9
 109 413 l 1
 114 452 l 1
 234 452 l 1
EndSplineSet
EndChar
StartChar: uni210F
Encoding: 8463 8463 65535
Width: 1024
Flags: HW
Fore
667.5 637 m 1
 238.5 458 l 1
 217.5 500 l 1
 646.5 679 l 1
 667.5 637 l 1
732.5 96 m 2
 726.5 70 750.5 53 804.5 46 c 1
 799.5 20 l 1
 720.5 22 642.5 22 566.5 20 c 1
 571.5 46 l 1
 629.5 53 659.5 70 662.5 96 c 1
 711.5 330 l 2
 723.5 383 718.5 420 699.5 441 c 0
 679.5 462 652.5 473 618.5 473 c 0
 591.5 473 566.5 468 544.5 456 c 0
 521.5 446 494.5 424 463.5 391 c 128
 432.5 358 414.5 328 408.5 300 c 2
 365.5 96 l 2
 359.5 70 383.5 53 437.5 46 c 1
 432.5 20 l 1
 353.5 22 275.5 22 199.5 20 c 1
 204.5 46 l 1
 259.5 53 289.5 70 295.5 96 c 2
 420.5 685 l 2
 424.5 704 403.5 714 358.5 717 c 1
 363.5 742 l 1
 440.5 748 484.5 760 497.5 777 c 1
 509.5 777 l 1
 432.5 414 l 1
 472.5 449 506.5 474 534.5 488 c 0
 562.5 503 592.5 510 626.5 510 c 0
 676.5 510 717.5 495 751.5 464 c 0
 784.5 434 794.5 389 781.5 330 c 2
 732.5 96 l 2
EndSplineSet
EndChar
StartChar: afii61289
Encoding: 8467 8467 65535
Width: 1024
Flags: HW
Fore
495 236 m 1
 569 317 631 438 634 547 c 1
 634 633 638 727 570 727 c 1
 517 727 482 609 482 393 c 1
 482 351 487 282 495 236 c 1
430 165 m 1
 411 235 395 342 395 427 c 1
 395 567 448 762 571 762 c 1
 664 762 724 660 722 534 c 1
 716 393 620 263 520 161 c 1
 540 112 569 53 609 53 c 1
 656 53 697 78 763 197 c 1
 787 200 l 1
 766 138 l 1
 712 48 670 0 605 -9 c 1
 505 0 490 36 457 99 c 1
 361 24 328 12 298 -2 c 8
 270 -15 235 -38 223 -17 c 1
 220 -1 256 15 280 32 c 0
 315 57 393 120 430 165 c 1
EndSplineSet
EndChar
StartChar: aleph
Encoding: 8501 8501 65535
Width: 1000
VWidth: 1000
Flags: HW
Fore
773 611 m 1
 747 631 714 641 669 641 c 1
 607 644 537 679 517 772 c 1
 519 795 526 806 548 782 c 1
 570 722 622 698 672 699 c 1
 774 698 822 650 851 579 c 1
 853 569 857 558 856 546 c 1
 852 527 833 526 827 541 c 1
 820 556 812 569 803 580 c 1
 760 570 708 562 664 522 c 1
 634 482 603 425 598 369 c 1
 708 291 795 216 810 28 c 1
 817 20 796 -18 796 -18 c 1
 774 -36 765 -26 760 -8 c 1
 763 113 665 237 540 312 c 1
 483 342 420 366 368 402 c 1
 301 360 286 335 271 269 c 1
 266 173 329 157 340 80 c 1
 334 27 268 -15 207 -9 c 1
 131 0 153 24 185 30 c 1
 217 33 296 69 287 102 c 1
 274 147 242 189 242 254 c 1
 245 310 291 375 355 411 c 1
 238 494 177 603 190 777 c 1
 201 810 230 804 228 769 c 1
 217 616 331 500 457 440 c 1
 579 379 l 1
 582 452 622 523 653 552 c 1
 701 593 737 603 773 611 c 1
EndSplineSet
EndChar
StartChar: arrowboth
Encoding: 8596 8596 65535
Width: 1000
VWidth: 1000
Flags: HW
Fore
829 417 m 9
 171 418 l 1
 200 470 232 522 269 574 c 1
 271 583 267 585 258 582 c 1
 194 522 125 462 51 401 c 0
 46 396 46 392 51 387 c 0
 125 326 194 266 258 206 c 1
 267 203 271 205 269 214 c 1
 233 265 200 316 172 368 c 1
 829 368 l 1
 800 316 768 264 731 212 c 1
 729 203 733 201 742 204 c 1
 806 264 875 324 949 385 c 0
 954 390 954 394 949 399 c 0
 875 460 806 520 742 580 c 1
 733 583 729 581 731 572 c 1
 767 521 802 469 829 417 c 9
EndSplineSet
EndChar
StartChar: uni21CC
Encoding: 8652 8652 65535
Width: 1000
VWidth: 1000
Flags: HW
Fore
100.5 297 m 1
 100.5 297 99.1191 278.612 104.5 274 c 1
 188.5 208 271.5 154 358.5 84 c 1
 367.833 80.667 377.5 83.333 375.5 92 c 1
 337.5 139 286.5 196 254.5 248 c 1
 899.5 248 l 1
 899.5 297 l 1
 100.5 297 l 1
899.5 426 m 1
 899.5 426 900.881 444.388 895.5 449 c 1
 809.5 518 728.5 569 641.5 639 c 1
 632.167 642.333 622.5 639.667 624.5 631 c 1
 662.5 584 713.5 527 745.5 475 c 1
 100.5 475 l 1
 100.5 426 l 1
 899.5 426 l 1
EndSplineSet
EndChar
StartChar: emptyset
Encoding: 8709 8709 65535
Width: 1000
VWidth: 1000
Flags: HW
Fore
272 86 m 1
 237 122 l 1
 754 639 l 1
 790 603 l 1
 272 86 l 1
222 360 m 0
 222 439 250 508 307 565 c 128
 364 622 432 650 512 650 c 0
 591 650 660 622 717 565 c 128
 774 508 802 439 802 360 c 0
 802 280 774 212 717 155 c 128
 660 98 591 70 512 70 c 0
 432 70 364 98 307 155 c 128
 250 212 222 280 222 360 c 0
268 360 m 0
 268 294 292 235 340 188 c 0
 387 140 446 116 512 116 c 128
 578 116 637 140 685 188 c 0
 732 235 756 294 756 360 c 0
 756 427 732 485 685 533 c 0
 637 580 578 605 512 605 c 128
 446 605 387 580 340 533 c 0
 292 485 268 427 268 360 c 0
EndSplineSet
EndChar
StartChar: uni222D
Encoding: 8749 8749 65535
Width: 1024
Flags: HW
Fore
404 810 m 0
 431 810 453 804 472 790 c 0
 491 778 504 764 512 750 c 128
 520 736 524 722 523 706 c 0
 522 692 516 679 504 668 c 0
 493 657 479 654 464 658 c 0
 450 662 442 671 442 686 c 128
 442 701 445 713 452 722 c 0
 458 732 461 741 461 748 c 0
 460 755 454 763 442 770 c 128
 430 777 417 781 403 781 c 0
 387 781 369 766 348 736 c 0
 326 705 314 660 310 600 c 0
 306 541 306 466 306 376 c 128
 306 286 299 206 285 135 c 128
 271 64 250 10 221 -30 c 0
 192 -68 162 -88 133 -88 c 0
 107 -88 84 -82 66 -68 c 0
 47 -56 34 -42 26 -28 c 128
 18 -14 14 0 15 16 c 0
 15 30 21 43 33 54 c 128
 45 65 58 68 73 64 c 128
 88 60 95 51 95 36 c 128
 95 21 92 9 86 0 c 0
 80 -10 77 -19 77 -26 c 128
 77 -33 83 -41 95 -48 c 128
 107 -55 120 -59 134 -59 c 0
 150 -59 169 -44 190 -14 c 0
 211 17 224 62 227 122 c 0
 231 181 231 256 231 346 c 128
 231 436 239 516 253 587 c 0
 266 658 288 712 317 752 c 0
 346 790 376 810 404 810 c 0
891 810 m 0
 917 810 940 804 958 790 c 0
 977 778 990 764 998 750 c 128
 1006 736 1010 722 1009 706 c 0
 1009 692 1003 679 991 668 c 128
 979 657 966 654 951 658 c 128
 936 662 929 671 929 686 c 128
 929 701 932 713 938 722 c 0
 944 732 947 741 947 748 c 128
 947 755 941 763 929 770 c 128
 917 777 904 781 890 781 c 0
 874 781 855 766 834 736 c 0
 813 705 800 660 797 600 c 0
 793 541 793 466 793 376 c 128
 793 286 785 206 771 135 c 0
 758 64 736 10 707 -30 c 0
 678 -68 648 -88 620 -88 c 0
 593 -88 571 -82 552 -68 c 0
 533 -56 520 -42 512 -28 c 128
 504 -14 500 0 501 16 c 0
 502 30 508 43 520 54 c 0
 531 65 545 68 560 64 c 0
 574 60 582 51 582 36 c 128
 582 21 579 9 572 0 c 0
 566 -10 563 -19 563 -26 c 0
 564 -33 570 -41 582 -48 c 128
 594 -55 607 -59 621 -59 c 0
 637 -59 655 -44 676 -14 c 0
 698 17 710 62 714 122 c 0
 718 181 718 256 718 346 c 128
 718 436 725 516 739 587 c 128
 753 658 775 712 804 752 c 0
 833 790 862 810 891 810 c 0
647 810 m 0
 674 810 697 804 715 790 c 0
 734 778 747 764 755 750 c 128
 763 736 767 722 766 706 c 0
 765 692 759 679 748 668 c 0
 736 657 723 654 708 658 c 128
 693 662 685 671 685 686 c 128
 685 701 689 713 695 722 c 0
 701 732 704 741 704 748 c 128
 704 755 697 763 685 770 c 128
 673 777 660 781 646 781 c 0
 631 781 612 766 591 736 c 0
 570 705 557 660 553 600 c 0
 550 541 550 466 550 376 c 128
 550 286 542 206 528 135 c 0
 515 64 493 10 464 -30 c 0
 435 -68 405 -88 377 -88 c 0
 350 -88 327 -82 309 -68 c 0
 290 -56 277 -42 269 -28 c 128
 261 -14 257 0 258 16 c 0
 259 30 265 43 276 54 c 0
 288 65 301 68 316 64 c 128
 331 60 339 51 339 36 c 128
 339 21 335 9 329 0 c 0
 323 -10 320 -19 320 -26 c 128
 320 -33 327 -41 339 -48 c 128
 351 -55 364 -59 378 -59 c 0
 393 -59 412 -44 433 -14 c 0
 454 17 467 62 471 122 c 0
 474 181 474 256 474 346 c 128
 474 436 482 516 496 587 c 0
 509 658 531 712 560 752 c 0
 589 790 619 810 647 810 c 0
EndSplineSet
EndChar
StartChar: uni222E
Encoding: 8750 8750 65535
Width: 1024
Flags: HW
Fore
484 514 m 1
 487 539 491 564 496 587 c 0
 510 658 533 712 564 752 c 0
 594 790 624 810 654 810 c 0
 682 810 706 804 726 790 c 0
 746 778 760 764 768 750 c 128
 776 736 780 722 780 706 c 0
 779 692 772 679 760 668 c 128
 748 657 734 654 718 658 c 128
 702 662 694 671 694 686 c 128
 694 701 698 713 704 722 c 0
 711 732 714 741 714 748 c 128
 714 755 707 763 694 770 c 0
 682 777 668 781 654 781 c 0
 637 781 617 766 595 736 c 0
 573 705 560 660 556 600 c 0
 554 574 552 544 551 511 c 1
 577 504 599 491 619 470 c 0
 650 440 665 404 665 361 c 0
 665 319 650 282 619 252 c 0
 596 229 570 215 540 210 c 1
 537 184 533 159 528 135 c 0
 514 64 491 10 460 -30 c 0
 430 -68 400 -88 370 -88 c 0
 342 -88 318 -82 298 -68 c 0
 278 -56 264 -42 256 -28 c 128
 248 -14 244 0 244 16 c 0
 245 30 252 43 264 54 c 128
 276 65 290 68 306 64 c 128
 322 60 330 51 330 36 c 128
 330 21 326 9 320 0 c 0
 313 -10 310 -19 310 -26 c 128
 310 -33 317 -41 330 -48 c 0
 342 -55 356 -59 370 -59 c 0
 387 -59 407 -44 429 -14 c 0
 451 17 464 62 468 122 c 0
 470 148 472 178 473 211 c 1
 446 218 422 231 401 252 c 0
 371 282 356 319 356 361 c 0
 356 404 371 440 401 470 c 0
 425 494 453 509 484 514 c 1
480 473 m 1
 461 468 444 458 428 443 c 0
 406 420 394 393 394 361 c 0
 394 330 406 303 428 280 c 0
 442 266 457 257 474 252 c 1
 474 281 474 312 474 346 c 0
 474 391 476 433 480 473 c 1
550 470 m 1
 550 441 550 409 550 376 c 0
 550 332 548 290 544 251 c 1
 562 257 577 266 591 280 c 0
 614 303 625 330 625 361 c 0
 625 393 614 420 591 443 c 0
 579 455 565 464 550 470 c 1
EndSplineSet
EndChar
StartChar: uni2243
Encoding: 8771 8771 65535
Width: 1000
VWidth: 1000
Flags: HW
Fore
150 287 m 1
 150 242 l 1
 852 242 l 1
 852 287 l 1
 150 287 l 1
328 573 m 0
 367 573 409 561 451 538 c 0
 561 473 l 0
 597 452 635 442 676 442 c 1
 716 445 746 454 767 468 c 0
 787 481 800 495 813 518 c 0
 827 541 831 552 838 572 c 0
 844 587 863 587 859 567 c 1
 856 544 847 528 836 505 c 0
 824 481 807 457 780 433 c 0
 753 410 719 396 676 393 c 0
 676 393 l 0
 635 393 592 406 549 431 c 0
 438 497 l 0
 403 517 367 527 328 527 c 1
 293 523 264 515 243 502 c 0
 221 489 205 475 192 457 c 0
 178 440 157 402 157 401 c 1
 153 392 143 393 140 402 c 1
 138 408 164 461 171 473 c 0
 185 495 203 518 230 539 c 0
 256 558 290 570 328 573 c 0
 328 573 l 0
EndSplineSet
EndChar
StartChar: uni2272
Encoding: 8818 8818 65535
Width: 1000
VWidth: 1000
Flags: HW
Fore
312 234 m 1
 356 234 401 222 448 199 c 0
 494 176 538 154 579 134 c 0
 619 113 662 103 708 103 c 1
 753 106 787 115 810 129 c 128
 833 143 850 160 862 180 c 0
 873 199 882 214 890 231 c 1
 897 240 904 240 909 231 c 1
 905 212 896 187 884 163 c 0
 871 139 851 115 822 92 c 0
 792 69 755 55 708 52 c 1
 663 52 616 65 568 90 c 128
 520 115 476 137 436 156 c 0
 397 176 356 186 312 186 c 1
 272 182 240 174 217 161 c 0
 193 148 174 133 159 115 c 0
 144 98 132 82 121 63 c 1
 114 57 109 57 106 63 c 1
 116 88 128 114 141 136 c 0
 154 159 175 180 205 200 c 0
 234 219 270 231 312 234 c 1
867 812 m 1
 880.333 814 889.333 810.333 894 801 c 128
 898.667 791.667 896.333 783.667 887 777 c 1
 219 547 l 2
 205 542.333 205 537.667 219 533 c 2
 887 303 l 1
 896.333 296.333 898.667 288.333 894 279 c 128
 889.333 269.667 880.333 266 867 268 c 1
 145 517 l 1
 119.667 532.333 119.667 547.667 145 563 c 1
 867 812 l 1
EndSplineSet
EndChar
StartChar: uni2273
Encoding: 8819 8819 65535
Width: 1000
VWidth: 1000
Flags: HW
Fore
312 231 m 1
 356 231 401 219 448 196 c 0
 494 173 538 151 579 131 c 0
 619 110 662 100 708 100 c 1
 753 103 787 112 810 126 c 128
 833 140 850 157 862 177 c 0
 873 196 882 214 890 231 c 1
 897 240 904 240 909 231 c 1
 905 212 896 190 884 166 c 0
 871 142 851 118 822 95 c 0
 792 72 755 58 708 55 c 1
 663 55 616 68 568 93 c 128
 520 118 476 140 436 159 c 0
 397 179 356 189 312 189 c 1
 272 185 240 177 217 164 c 0
 193 151 174 136 159 118 c 0
 144 101 132 82 121 63 c 1
 114 57 109 57 106 63 c 1
 116 88 128 111 141 133 c 0
 154 156 175 177 205 197 c 0
 234 216 270 228 312 231 c 1
172 268 m 1
 158.667 266 149.667 269.667 145 279 c 128
 140.333 288.333 142.667 296.333 152 303 c 1
 820 533 l 2
 834 537.667 834 542.333 820 547 c 2
 152 777 l 1
 142.667 783.667 140.333 791.667 145 801 c 128
 149.667 810.333 158.667 814 172 812 c 1
 894 563 l 1
 919.333 547.667 919.333 532.333 894 517 c 1
 172 268 l 1
EndSplineSet
EndChar
StartChar: circleplus
Encoding: 8853 8853 65535
Width: 1000
VWidth: 1000
Flags: HW
Fore
476 62 m 1
 476 338 l 1
 216 338 l 1
 214 382 l 1
 476 382 l 1
 476 654 l 1
 521 654 l 1
 521 382 l 1
 792 382 l 1
 792 338 l 1
 521 338 l 1
 521 63 l 1
 476 62 l 1
126 360 m 0
 126 462 163 550 236 623 c 0
 310 697 397 734 500 734 c 0
 602 734 690 697 763 623 c 0
 837 550 874 462 874 360 c 0
 874 257 837 170 763 96 c 0
 690 23 602 -14 500 -14 c 0
 397 -14 310 23 236 96 c 0
 163 170 126 257 126 360 c 0
167 360 m 0
 167 269 200 190 265 125 c 128
 330 60 409 27 500 27 c 128
 591 27 670 60 735 125 c 128
 800 190 833 269 833 360 c 128
 833 451 800 530 735 595 c 128
 670 660 591 694 500 694 c 128
 409 694 330 660 265 595 c 128
 200 530 167 451 167 360 c 0
EndSplineSet
EndChar
StartChar: uni2296
Encoding: 8854 8854 65535
Width: 1000
VWidth: 1000
Flags: HW
Fore
215 339 m 1
 215 386 l 1
 788 386 l 1
 787 339 l 1
 215 339 l 1
126 360 m 0
 126 462 163 550 236 623 c 0
 309 697 397 734 500 734 c 0
 602 734 690 697 763 623 c 0
 837 550 874 462 874 360 c 0
 874 257 837 169 763 96 c 0
 690 23 602 -14 500 -14 c 0
 397 -14 309 23 236 96 c 128
 163 169 126 257 126 360 c 0
167 360 m 0
 167 269 200 190 265 125 c 128
 330 60 409 27 500 27 c 128
 591 27 670 60 736 125 c 0
 801 190 833 269 833 360 c 128
 833 451 801 530 736 596 c 0
 670 661 591 694 500 694 c 128
 409 694 330 661 265 596 c 0
 200 530 167 451 167 360 c 0
EndSplineSet
EndChar
StartChar: circlemultiply
Encoding: 8855 8855 65535
Width: 1000
VWidth: 1000
Flags: HW
Fore
691 132 m 1
 496 328 l 1
 312 145 l 1
 280 175 l 1
 465 359 l 1
 273 553 l 1
 304 583 l 1
 496 392 l 1
 688 583 l 1
 720 552 l 1
 528 359 l 1
 723 166 l 1
 691 132 l 1
126 360 m 0
 126 462 163 550 236 623 c 0
 310 697 397 734 500 734 c 0
 602 734 690 697 763 623 c 0
 837 550 874 462 874 360 c 0
 874 257 837 170 763 96 c 0
 690 23 602 -14 500 -14 c 0
 397 -14 310 23 236 96 c 0
 163 170 126 257 126 360 c 0
167 360 m 0
 167 269 200 190 265 125 c 128
 330 60 409 27 500 27 c 128
 591 27 670 60 735 125 c 128
 800 190 833 269 833 360 c 128
 833 451 800 530 735 595 c 128
 670 660 591 694 500 694 c 128
 409 694 330 660 265 595 c 128
 200 530 167 451 167 360 c 0
EndSplineSet
EndChar
StartChar: uni2298
Encoding: 8856 8856 65535
Width: 1000
VWidth: 1000
Flags: HW
Fore
312 145 m 1
 279 176 l 1
 688 583 l 1
 720 552 l 1
 312 145 l 1
126 360 m 0
 126 462 163 550 236 623 c 0
 309 697 397 734 500 734 c 0
 602 734 690 697 763 623 c 0
 837 550 874 462 874 360 c 0
 874 257 837 169 763 96 c 0
 690 23 602 -14 500 -14 c 0
 397 -14 309 23 236 96 c 128
 163 169 126 257 126 360 c 0
167 360 m 0
 167 269 200 190 265 125 c 128
 330 60 409 27 500 27 c 128
 591 27 670 60 736 125 c 0
 801 190 833 269 833 360 c 128
 833 451 801 530 736 596 c 0
 670 661 591 694 500 694 c 128
 409 694 330 661 265 596 c 0
 200 530 167 451 167 360 c 0
EndSplineSet
EndChar
StartChar: uni229E
Encoding: 8862 8862 65535
Width: 1000
VWidth: 1000
Flags: HW
Fore
822 385 m 1
 822 687 l 1
 521 687 l 1
 521 385 l 1
 822 385 l 1
475 687 m 1
 179 687 l 1
 179 385 l 1
 475 385 l 1
 475 687 l 1
179 344 m 1
 179 40 l 1
 475 40 l 1
 475 344 l 1
 179 344 l 1
521 40 m 1
 822 40 l 1
 822 344 l 1
 521 344 l 1
 521 40 l 1
152 731 m 2
 849 731 l 2
 860 731 866 726 866 715 c 2
 866 12 l 2
 866 1 860 -4 849 -4 c 2
 152 -4 l 2
 141 -4 135 1 135 12 c 2
 135 715 l 2
 135 726 141 731 152 731 c 2
EndSplineSet
EndChar
StartChar: uni22A0
Encoding: 8864 8864 65535
Width: 1000
VWidth: 1000
Flags: HW
Fore
734 100 m 1
 504 331 l 1
 275 102 l 1
 239 137 l 1
 469 365 l 1
 240 594 l 1
 274 629 l 1
 504 400 l 1
 732 628 l 1
 767 593 l 1
 539 365 l 1
 770 136 l 1
 734 100 l 1
838 714 m 2
 849 714 855 709 855 698 c 2
 855 29 l 2
 855 18 849 13 838 13 c 2
 174 13 l 2
 163 13 157 18 157 29 c 2
 157 698 l 2
 157 709 163 714 174 714 c 2
 838 714 l 2
201 670 m 1
 201 57 l 1
 811 57 l 1
 811 670 l 1
 201 670 l 1
EndSplineSet
EndChar
StartChar: uni2307
Encoding: 8967 8967 65535
Width: 1000
VWidth: 1000
Flags: HW
Fore
383 357 m 0
 383 386 391 436 424 476 c 0
 424 476 459 526 513 588 c 0
 541 622 560 653 560 691 c 0
 560 728 542 763 514 797 c 0
 514 797 478 834 455 857 c 25
 524 857 l 25
 541 838 567 807 567 807 c 0
 600 767 617 728 617 691 c 0
 617 653 600 611 567 571 c 0
 483 463 l 0
 459 430 443 395 443 357 c 0
 443 320 460 286 484 253 c 0
 568 142 l 0
 601 102 617 61 617 24 c 128
 617 -13 600 -52 567 -92 c 0
 567 -92 541 -123 524 -143 c 25
 455 -143 l 25
 475 -119 507 -82 507 -82 c 0
 535 -49 560 -13 560 24 c 128
 560 61 542 93 514 126 c 0
 460 189 425 241 425 241 c 0
 392 281 383 320 383 357 c 0
EndSplineSet
EndChar
StartChar: uni2473
Encoding: 9331 9331 65535
Width: 1024
Flags: HW
Fore
411.62 120 m 16
 344.74 118 251.82 121 251.82 121 c 1
 251.82 149 265.74 186 303.58 232 c 0
 341.42 278 380.567 317.667 409.02 351 c 128
 437.473 384.333 462.673 417.333 482.62 450 c 128
 502.567 482.667 511.54 515.667 511.54 549 c 0
 511.54 587.667 496.14 622.5 465.34 653.5 c 0
 434.54 684.5 397.193 700 357.3 700 c 0
 326.207 700 294.86 693.5 277.26 680.5 c 128
 259.66 667.5 243.979 659.056 228 636 c 0
 212.06 613 210.113 604.5 206.3 591.5 c 128
 202.487 578.5 201.313 565.5 202.78 554.5 c 128
 204.247 543.5 209.207 535.167 215.66 529.5 c 128
 222.113 523.833 231.153 520.167 238.78 518.5 c 128
 246.407 516.833 255.18 520 263.1 528 c 0
 271.02 536 274.1 545 272.34 555 c 128
 270.58 565 268.397 577.465 262.1 587.5 c 0
 253 602 256.2 618 265 631 c 128
 273.8 644 287.913 648.167 299.94 656.5 c 128
 311.967 664.833 334.42 668 357.3 668 c 0
 378.42 668 398.247 656.667 418.78 634 c 0
 439.312 611.333 449.58 583.333 449.58 550 c 0
 449.58 519.333 443.273 489.5 430.66 460.5 c 128
 418.047 431.5 399.513 401 371.06 369 c 128
 342.607 337 308.82 293.5 265.7 238.5 c 128
 222.58 183.5 201.02 126.333 201.02 67 c 1
 306.033 68.333 399.887 68.333 492.58 67 c 1
 498.447 109 507.247 159 518.98 223 c 1
 505.78 226 l 1
 489.354 172 474.411 142.092 459.14 134.5 c 0
 438.02 124 430.987 120.579 411.62 120 c 16
534.051 377 m 0
 534.051 465 546.131 540.167 580.617 602.5 c 0
 615.104 664.833 659.095 697 702.431 697 c 0
 745.156 697 790.996 664.833 825.787 602.5 c 128
 860.578 540.167 875.158 465 875.158 377 c 0
 875.158 288.333 860.578 212.833 825.787 150.5 c 128
 790.996 88.167 745.156 56 702.431 56 c 0
 659.095 56 615.104 88.167 580.617 150.5 c 0
 546.131 212.833 534.051 288.333 534.051 377 c 0
600.922 377 m 0
 600.922 295 609.986 226.667 628.114 172 c 0
 646.241 117.333 674.416 88 702.431 88 c 0
 729.896 88 759.933 117.333 778.336 172 c 0
 796.737 226.667 815.939 295 815.939 377 c 0
 815.939 461 796.737 529.667 778.336 583 c 0
 759.933 636.333 729.896 665 702.431 665 c 0
 674.416 665 646.241 636.333 628.114 583 c 0
 609.986 529.667 600.922 461 600.922 377 c 0
34 381 m 0
 34 512.333 80.3333 624.5 173 717.5 c 0
 265.667 810.5 378 857 510 857 c 0
 641.333 857 753.5 810.5 846.5 717.5 c 128
 939.5 624.5 986 512.333 986 381 c 0
 986 249 939.5 136.667 846.5 44 c 0
 753.5 -48.6667 641.333 -95 510 -95 c 0
 378 -95 265.667 -48.6667 173 44 c 0
 80.3333 136.667 34 249 34 381 c 0
69 380 m 0
 69 259.333 113 151 195 69 c 1
 282 -20 388.43 -62.2845 510 -60 c 1
 630.667 -60 739.667 -15.667 823 67 c 128
 906.333 149.667 951 258.667 951 380 c 0
 951 500.667 906.333 609.833 823 693.5 c 128
 739.667 777.167 630.667 827 510 827 c 0
 388.667 827 276.5 777.167 193.5 693.5 c 128
 110.5 609.833 69 500.667 69 380 c 0
EndSplineSet
EndChar
StartChar: uni25B6
Encoding: 9654 9654 65535
Width: 1000
VWidth: 1000
Flags: HW
Fore
154 -91 m 2
 138 -100 124 -101 124 -79 c 2
 124 783 l 2
 124 793 127 800 131 802 c 0
 135 805 142 803 151 797 c 2
 863 375 l 1
 874 355 874 350 856 341 c 2
 154 -91 l 2
EndSplineSet
EndChar
StartChar: uni25C0
Encoding: 9664 9664 65535
Width: 1000
VWidth: 1000
Flags: HW
Fore
833 802 m 2
 849 811 863 812 863 790 c 2
 863 -72 l 2
 863 -82 860 -89 856 -91 c 0
 852 -94 845 -92 836 -86 c 2
 124 336 l 1
 113 356 113 361 131 370 c 2
 833 802 l 2
EndSplineSet
EndChar
StartChar: uni2668
Encoding: 9832 9832 65535
Width: 1000
VWidth: 1000
Flags: HW
Fore
470 446 m 8
 489.326 480.358 499 510 514 537 c 128
 529 564 539 596 539 626 c 1
 536 656 530 670 520 686 c 0
 509 701 497 715 483 723 c 0
 467 730 440 743 439 743 c 0
 428 749 428 762 443 761 c 0
 450 761 477 750 495 742 c 0
 513 733 535 717 553 698 c 0
 570 679 586 659 586 626 c 0
 585 596 575 560 556 528 c 128
 537 496 523 465 509 436 c 0
 494.979 406.958 486 387 486 358 c 1
 489 332 494 320 504 304 c 0
 514 289 528 272 539 262 c 0
 542 260 570 240 582 231 c 1
 595 220 585 215 578 216 c 1
 559 224 539 234 524 245 c 0
 508 256 487 273 472 293 c 128
 457 313 445 328 445 357 c 0
 445 383 452 414 470 446 c 8
701 277 m 1
 626 319 588 355 588 384 c 0
 588 412 597 436 616 457 c 128
 635 478 650 496 662 513 c 128
 674 530 680 549 680 572 c 0
 680 596 656 629 608 671 c 1
 607 679 610 682 617 679 c 1
 692 637 729 601 729 572 c 0
 729 544 720 520 701 499 c 128
 682 478 667 460 655 443 c 128
 643 426 637 407 637 384 c 0
 637 360 666 327 714 285 c 1
 718 276 710 274 701 277 c 1
413 285 m 1
 338 327 300 363 300 392 c 0
 300 420 309 444 328 465 c 128
 347 486 362 504 374 521 c 128
 386 538 392 557 392 580 c 0
 392 604 368 637 320 679 c 1
 319 687 322 690 329 687 c 1
 404 645 441 609 441 580 c 0
 441 552 432 528 413 507 c 128
 394 486 379 468 367 451 c 128
 355 434 349 415 349 392 c 0
 349 368 373 335 421 293 c 1
 425 284 422 282 413 285 c 1
500 37 m 0
 394 37 304 62 236 111 c 128
 168 160 130 217 130 281 c 0
 130 350 151 380 198 419 c 128
 245 458 239 450 274 466 c 1
 290 465 298 460 300 452 c 0
 302 445 296 438 283 432 c 1
 260 420 260 422 227 388 c 0
 193 352 182 329 182 290 c 0
 182 239 211 205 270 168 c 128
 329 131 408 113 500 113 c 0
 591 113 671 131 730 168 c 128
 789 205 818 239 818 290 c 0
 818 329 799 365 776 388 c 0
 755 408 743 417 720 432 c 1
 707 438 701 445 703 452 c 0
 705 460 713 465 729 466 c 1
 758 459 782 441 805 419 c 0
 830 395 872 350 872 281 c 0
 872 217 832 160 764 111 c 128
 696 62 605 37 500 37 c 0
EndSplineSet
EndChar
StartChar: uni2669
Encoding: 9833 9833 65535
Width: 1000
VWidth: 1000
Flags: HW
Fore
518 809 m 1
 520 139 l 2
 520.134 94.334 511.833 59.1667 495.5 33.5 c 0
 479.167 7.83333 456.833 -13.6667 428.5 -31 c 128
 400.167 -48.3333 370 -57.3333 338 -58 c 0
 304.667 -58 276.667 -50.6667 254 -36 c 128
 231.333 -21.3333 220 -1 220 25 c 0
 220 55 236.833 81.6667 270.5 105 c 0
 304.167 128.333 341 140.667 381 142 c 0
 413 142 440.667 138.667 464 132 c 1
 464 809 l 1
 518 809 l 1
EndSplineSet
EndChar
StartChar: uni266C
Encoding: 9836 9836 65535
Width: 1000
VWidth: 1000
Flags: HW
Fore
824 809 m 1
 826 258 l 2
 826.134 213.334 817.833 178.167 801.5 152.5 c 128
 785.167 126.833 762.833 105.333 734.5 88 c 128
 706.167 70.667 676 61.667 644 61 c 0
 610.667 61 582.667 68.333 560 83 c 128
 537.333 97.667 526 118 526 144 c 0
 526 174 542.833 200.667 576.5 224 c 128
 610.167 247.333 647 260.667 687 262 c 0
 719 262 741 266 774 251 c 1
 775 558 l 1
 403.636 439 l 1
 405 139 l 2
 405.134 94.334 396.833 59.167 380.5 33.5 c 0
 364.167 7.83301 341.833 -13.667 313.5 -31 c 128
 285.167 -48.333 255 -57.333 223 -58 c 0
 189.667 -58 161.667 -50.667 139 -36 c 128
 116.333 -21.333 105 -1 105 25 c 0
 105 55 121.833 81.667 155.5 105 c 128
 189.167 128.333 226 141.667 266 143 c 0
 298 143 324 141 351 129 c 1
 351 659 l 1
 824 809 l 1
403.251 596 m 1
 403.478 516 l 1
 775 637 l 1
 774 710 l 1
 403.251 596 l 1
EndSplineSet
EndChar
StartChar: uni2756
Encoding: 10070 10070 65535
Width: 1000
VWidth: 1000
Flags: HW
Fore
7 358 m 1
 224 576 l 9
 441 358 l 1
 224 142 l 1
 7 358 l 1
500 852 m 1
 717 635 l 9
 500 419 l 1
 283 635 l 1
 500 852 l 1
993 358 m 1
 774 141 l 9
 557 358 l 1
 774 575 l 1
 993 358 l 1
500 -135 m 1
 283 81 l 1
 500 298 l 1
 717 81 l 9
 500 -135 l 1
EndSplineSet
EndChar
StartChar: uni3030
Encoding: 12336 12336 65535
Width: 1000
VWidth: 1000
Flags: HW
Fore
500 271 m 0
 471 271 421 279 381 313 c 0
 381 313 332 348 269 401 c 0
 235 429 204 449 167 449 c 0
 129 449 94 430 60 402 c 0
 60 402 24 366 0 344 c 25
 0 412 l 25
 20 429 51 455 51 455 c 0
 91 488 129 505 167 505 c 0
 204 505 247 488 287 455 c 0
 395 371 l 0
 427 348 463 331 500 331 c 128
 537 331 572 349 604 372 c 0
 715 456 l 0
 755 489 796 505 833 505 c 0
 871 505 909 488 949 455 c 0
 949 455 980 429 1000 412 c 25
 1000 344 l 25
 976 364 940 395 940 395 c 0
 906 423 871 449 833 449 c 0
 796 449 764 430 731 402 c 0
 668 349 616 314 616 314 c 0
 576 280 537 271 500 271 c 0
EndSplineSet
EndChar
StartChar: uni3033
Encoding: 12339 12339 65535
Width: 1000
VWidth: 1000
Flags: HW
Fore
150 -141 m 0
 148 -130 155 -109 164 -88 c 128
 173 -67 200 -29 245 30 c 128
 290 89 341 156 396 236 c 0
 452 316 509 396 555 476 c 128
 601 556 615 572 628 585 c 0
 642 597 650 620 662 626 c 0
 675 633 676 638 688 642 c 128
 700 646 688 642 716 664 c 0
 727 672 716 682 702 697 c 0
 681 719 664 736 646 749 c 0
 629 762 611 773 594 782 c 0
 577 790 553 798 523 806 c 1
 513 806 509 804 508 800 c 0
 508 795 510 791 516 787 c 0
 531 780 546 768 559 753 c 0
 573 737 578 721 576 704 c 0
 574 674 557 637 510 556 c 0
 460 470 412 382 360 301 c 0
 308 219 262 151 222 91 c 0
 181 31 153 -9 137 -33 c 128
 121 -57 111 -82 109 -107 c 0
 108 -117 108 -132 108 -141 c 1
 150 -141 l 0
EndSplineSet
EndChar
StartChar: uni3034
Encoding: 12340 12340 65535
Width: 1000
VWidth: 1000
Flags: HW
Fore
706.5 456 m 1
 731.833 448.667 752.5 441.667 768.5 435 c 128
 784.5 428.333 799.167 420.167 812.5 410.5 c 128
 825.833 400.833 834.833 390.167 839.5 378.5 c 128
 844.167 366.833 842.333 356.167 834 346.5 c 128
 825.667 336.833 818 331.833 811 331.5 c 128
 804 331.167 797.667 335.5 792 344.5 c 128
 786.333 353.5 779.833 363.833 772.5 375.5 c 128
 765.167 387.167 756.833 397.833 747.5 407.5 c 128
 738.167 417.167 723.167 429.333 702.5 444 c 1
 696.5 450.667 697.833 454.667 706.5 456 c 1
621.5 365 m 1
 646.167 355 657.167 342.667 672.5 334 c 128
 687.833 325.333 701.5 315.167 713.5 303.5 c 128
 725.5 291.833 733.167 280 736.5 268 c 128
 739.833 256 736.667 245.667 727 237 c 128
 717.333 228.333 709 224.333 702 225 c 128
 695 225.667 689.333 230.833 685 240.5 c 128
 680.667 250.167 675.333 261.333 669 274 c 128
 662.667 286.667 655.5 298.333 647.5 309 c 128
 639.5 319.667 626.167 333.667 607.5 351 c 1
 602.167 358.333 612.833 365 621.5 365 c 1
150 -141 m 0
 148 -130 155 -109 164 -88 c 128
 173 -67 200 -29 245 30 c 128
 290 89 341 156 396 236 c 0
 452 316 509 396 555 476 c 128
 601 556 615 572 628 585 c 0
 642 597 650 620 662 626 c 0
 675 633 676 638 688 642 c 128
 700 646 688 642 716 664 c 0
 727 672 716 682 702 697 c 0
 681 719 664 736 646 749 c 0
 629 762 611 773 594 782 c 0
 577 790 553 798 523 806 c 1
 513 806 509 804 508 800 c 0
 508 795 510 791 516 787 c 0
 531 780 546 768 559 753 c 0
 573 737 578 721 576 704 c 0
 574 674 557 637 510 556 c 0
 460 470 412 382 360 301 c 0
 308 219 262 151 222 91 c 0
 181 31 153 -9 137 -33 c 128
 121 -57 111 -82 109 -107 c 0
 108 -117 108 -132 108 -141 c 1
 150 -141 l 0
EndSplineSet
EndChar
StartChar: uni3035
Encoding: 12341 12341 65535
Width: 1000
VWidth: 1000
Flags: HW
Fore
150 859 m 1
 153 846 156 836 167 820 c 0
 179 804 201 774 232 731 c 0
 264 689 302 640 348 586 c 0
 393 532 439 473 486 408 c 0
 534 343 579 274 621 203 c 0
 664 130 689 86 698 69 c 0
 706 52 711 23 713 -19 c 0
 715 -60 710 -84 698 -88 c 0
 687 -91 673 -90 657 -85 c 128
 641 -80 610 -26 566 76 c 0
 521 178 480 260 441 322 c 0
 402 383 361 445 318 507 c 0
 276 569 238 622 206 666 c 128
 174 710 152 743 139 765 c 0
 126 788 117 806 113 824 c 0
 110 835 108 846 108 859 c 1
 150 859 l 1
EndSplineSet
EndChar
StartChar: uni3094
Encoding: 12436 12436 65535
Width: 1024
Flags: HW
Fore
808 815 m 1
 833.333 807.667 854 800.667 870 794 c 128
 886 787.333 900.667 779.167 914 769.5 c 128
 927.333 759.833 936.333 749.167 941 737.5 c 128
 945.667 725.833 943.833 715.167 935.5 705.5 c 128
 927.167 695.833 919.5 690.833 912.5 690.5 c 128
 905.5 690.167 899.167 694.5 893.5 703.5 c 128
 887.833 712.5 881.333 722.833 874 734.5 c 128
 866.667 746.167 858.333 756.833 849 766.5 c 128
 839.667 776.167 824.667 788.333 804 803 c 1
 798 809.667 799.333 813.667 808 815 c 1
716 764 m 1
 740.667 754.667 760.833 746 776.5 738 c 128
 792.167 730 806.167 720.333 818.5 709 c 128
 830.833 697.667 838.833 686 842.5 674 c 128
 846.167 662 843.333 651.667 834 643 c 128
 824.667 634.333 816.5 630 809.5 630 c 128
 802.5 630 796.667 634.833 792 644.5 c 128
 787.333 654.167 781.667 665.333 775 678 c 128
 768.333 690.667 760.833 702.167 752.5 712.5 c 128
 744.167 722.833 730.333 736.333 711 753 c 1
 705.667 760.333 707.333 764 716 764 c 1
348 819 m 1
 356 807 369 796 387 786 c 128
 405 776 427.333 767.333 454 760 c 128
 480.667 752.667 505 747 527 743 c 128
 549 739 563 737.667 569 739 c 128
 575 740.333 586 735 602 723 c 128
 618 711 628.167 700 632.5 690 c 128
 636.833 680 634.167 671 624.5 663 c 128
 614.833 655 599.333 655.333 578 664 c 128
 556.667 672.667 531.333 675 502 671 c 128
 472.667 667 432.667 655.667 382 637 c 1
 374.667 636.333 372.667 639 376 645 c 1
 430.667 670.333 466 685.167 482 689.5 c 128
 498 693.833 506 697.167 506 699.5 c 128
 506 701.833 500.5 704.667 489.5 708 c 128
 478.5 711.333 461.167 718 437.5 728 c 128
 413.833 738 393.333 750 376 764 c 128
 358.667 778 345.333 793.667 336 811 c 1
 336 819 340 821.667 348 819 c 1
239 524 m 1
 230.333 494 234.667 477.667 252 475 c 128
 269.333 472.333 290.667 477.667 316 491 c 128
 341.333 504.333 372 517.667 408 531 c 128
 444 544.333 478.333 552.667 511 556 c 128
 543.667 559.333 577 557.333 611 550 c 128
 645 542.667 672.5 524.167 693.5 494.5 c 128
 714.5 464.833 726.5 435.833 729.5 407.5 c 128
 732.5 379.167 732.667 349 730 317 c 128
 727.333 285 719.333 253.667 706 223 c 128
 692.667 192.333 673.667 160.667 649 128 c 128
 624.333 95.333 597 67.667 567 45 c 128
 537 22.333 505.333 2.16699 472 -15.5 c 0
 438.667 -33.167 398 -51.667 350 -71 c 1
 340 -71 338 -67 344 -59 c 1
 385.333 -36.333 421 -15.333 451 4 c 128
 481 23.333 509 44 535 66 c 128
 561 88 584 114.333 604 145 c 128
 624 175.667 638.833 207 648.5 239 c 128
 658.167 271 663.833 298.667 665.5 322 c 128
 667.167 345.333 667.333 368.667 666 392 c 128
 664.667 415.333 659.667 441 651 469 c 128
 642.333 497 626 516 602 526 c 128
 578 536 549.667 538 517 532 c 128
 484.333 526 451.333 514.333 418 497 c 128
 384.667 479.667 357.667 463.667 337 449 c 128
 316.333 434.333 302 421 294 409 c 128
 286 397 277.667 390.333 269 389 c 128
 260.333 387.667 251 393.667 241 407 c 128
 231 420.333 222 435 214 451 c 128
 206 467 210 492.333 226 527 c 1
 233.333 532.333 237.667 531.333 239 524 c 1
EndSplineSet
EndChar
StartChar: uni3095
Encoding: 12437 12437 65535
Width: 1024
Flags: HW
Fore
631 394 m 1
 630 400 632 402 637 400 c 0
 670 383 697 366 717 350 c 128
 737 334 756 316 774 295 c 128
 792 274 806 253 817 233 c 0
 827 212 833 195 834 182 c 0
 834 169 827 156 812 143 c 1
 797 134 787 138 782 153 c 0
 776 167 767 176 755 178 c 128
 743 180 717 178 679 171 c 1
 672 173 672 176 677 180 c 1
 713 190 738 197 750 201 c 0
 762 204 769 206 771 207 c 0
 772 208 774 209 775 212 c 0
 776 214 775 220 771 230 c 0
 768 240 759 256 745 277 c 0
 730 298 714 317 697 336 c 128
 680 355 658 374 631 394 c 1
348 525 m 1
 386 515 409 506 419 497 c 0
 428 487 436 481 441 478 c 0
 446 474 448 470 449 465 c 0
 449 460 445 454 439 448 c 0
 432 442 426 433 422 421 c 128
 418 409 408 383 391 345 c 1
 421 353 445 358 465 360 c 128
 485 362 503 358 521 347 c 0
 538 336 550 318 555 294 c 0
 560 269 562 242 561 211 c 128
 560 180 557 149 551 118 c 0
 544 87 538 62 532 44 c 0
 525 25 518 10 510 -4 c 0
 502 -17 494 -27 485 -35 c 0
 477 -43 466 -49 453 -52 c 0
 432 -55 424 -48 428 -31 c 0
 432 -13 425 4 406 21 c 0
 388 38 369 53 352 65 c 1
 348 72 350 74 357 73 c 1
 378 63 397 51 415 40 c 0
 433 28 444 21 449 19 c 128
 454 17 460 17 466 19 c 0
 471 22 479 32 488 51 c 128
 497 70 505 94 511 124 c 0
 517 153 520 181 521 209 c 0
 523 236 523 260 523 279 c 0
 522 299 518 314 509 326 c 0
 501 337 486 342 466 341 c 0
 445 340 417 334 381 323 c 1
 366 285 352 249 339 214 c 128
 326 179 310 141 291 98 c 0
 273 56 259 23 249 -1 c 0
 239 -24 231 -39 224 -46 c 128
 217 -53 211 -55 206 -51 c 0
 200 -47 196 -41 194 -32 c 0
 192 -24 192 -16 193 -9 c 0
 195 -2 200 7 207 16 c 0
 215 26 220 34 225 40 c 0
 229 47 241 71 261 112 c 128
 281 153 298 189 311 219 c 128
 324 249 336 281 349 314 c 1
 336 309 321 304 305 299 c 0
 289 293 279 289 275 285 c 0
 271 282 266 280 260 278 c 0
 253 277 245 280 234 288 c 0
 224 295 214 304 206 314 c 128
 198 324 194 335 194 348 c 1
 196 353 200 354 204 352 c 1
 207 341 217 333 234 327 c 0
 251 322 269 320 286 323 c 0
 303 325 327 330 358 337 c 1
 374 382 382 416 384 438 c 0
 387 461 385 478 378 489 c 0
 372 500 361 508 344 514 c 1
 340 519 341 523 348 525 c 1
EndSplineSet
Substitution: 1 0 'vert' uni3095.vert
EndChar
StartChar: uni3096
Encoding: 12438 12438 65535
Width: 1024
Flags: HW
Fore
198 526 m 1
 197 529 197 532 198 534 c 0
 199 537 202 537 208 535 c 1
 235 519 254 505 265 494 c 0
 276 482 281 471 280 459 c 0
 280 448 277 440 273 435 c 0
 269 431 263 418 255 395 c 0
 248 372 241 349 233 324 c 0
 226 299 222 274 222 246 c 0
 221 219 224 196 229 175 c 0
 234 155 238 144 240 144 c 128
 242 144 245 148 250 156 c 128
 255 164 264 183 278 211 c 0
 292 240 304 264 314 283 c 1
 320 286 323 285 322 278 c 1
 313 258 303 233 290 204 c 0
 277 174 269 148 268 126 c 0
 266 104 266 90 267 84 c 128
 268 78 270 72 272 67 c 0
 275 62 277 57 280 51 c 128
 283 45 282 37 278 29 c 128
 274 21 267 18 258 19 c 0
 248 21 240 27 234 38 c 0
 227 49 221 66 214 88 c 128
 207 110 202 134 198 159 c 128
 194 184 192 212 192 243 c 128
 192 274 194 303 200 329 c 0
 206 356 211 384 216 413 c 128
 221 442 224 461 224 469 c 0
 224 478 223 487 220 497 c 128
 217 507 210 517 198 526 c 1
544 576 m 1
 584 564 610 551 624 540 c 0
 638 528 645 520 645 515 c 128
 645 510 644 505 641 502 c 0
 639 498 636 493 634 486 c 0
 631 480 630 466 629 444 c 128
 628 422 627 406 627 395 c 1
 652 399 670 404 679 409 c 0
 689 414 695 418 697 423 c 0
 700 428 706 430 718 429 c 128
 730 428 742 426 756 422 c 0
 770 419 775 414 771 408 c 0
 768 402 762 397 754 395 c 0
 745 393 731 389 712 384 c 128
 693 379 665 373 627 368 c 1
 628 352 629 330 631 302 c 128
 633 274 635 248 637 222 c 0
 639 197 637 172 632 147 c 0
 628 123 620 101 611 81 c 0
 601 61 587 42 570 25 c 0
 552 7 534 -8 517 -19 c 0
 500 -31 479 -42 454 -54 c 1
 445 -54 444 -52 449 -47 c 0
 472 -31 491 -17 505 -5 c 0
 518 8 532 22 545 38 c 0
 558 53 568 71 576 91 c 0
 583 111 589 132 592 154 c 128
 595 176 596 199 597 222 c 0
 597 246 597 272 596 300 c 128
 595 328 594 349 593 363 c 1
 559 358 531 355 508 354 c 0
 485 354 466 355 449 358 c 0
 433 360 418 366 405 374 c 128
 392 382 381 394 372 409 c 1
 372 415 375 417 380 414 c 1
 392 401 405 392 420 386 c 0
 434 381 454 378 481 378 c 128
 508 378 545 382 592 389 c 1
 592 400 591 415 589 433 c 0
 588 451 586 469 586 487 c 0
 585 504 582 519 577 531 c 128
 572 543 560 554 542 565 c 0
 538 567 536 569 537 572 c 128
 538 575 540 576 544 576 c 1
EndSplineSet
Substitution: 1 0 'vert' uni3096.vert
EndChar
StartChar: uni309F
Encoding: 12447 12447 65535
Width: 1000
VWidth: 1000
Flags: HW
Fore
584 681 m 1
 631 672 669 664 698 658 c 0
 726 652 751 645 772 639 c 128
 793 633 814 624 835 615 c 0
 856 605 870 593 877 579 c 128
 884 565 885 551 880 536 c 1
 872 523 863 520 854 526 c 0
 845 533 835 540 825 548 c 128
 815 556 795 561 765 564 c 0
 736 566 688 563 621 555 c 1
 606 557 605 561 617 567 c 1
 674 580 715 586 739 587 c 128
 763 588 777 588 779 589 c 0
 782 589 774 593 757 603 c 0
 739 612 718 621 695 630 c 0
 671 639 633 651 581 668 c 0
 567 673 568 677 584 681 c 1
460 420 m 0
 475 432 519 456 541 461 c 128
 563 466 592 471 616 466 c 0
 642.882 460.399 658 459 684 440 c 0
 707 423 713 411 726 391 c 0
 738 372 742 349 747 324 c 0
 752 298 748.654 250.824 729 196 c 0
 710 143 680 97 659 69 c 0
 631.708 32.6113 604 -1 557 -34 c 0
 520.217 -59.8262 483 -80 446 -76 c 0
 409 -71 383 -36 351 16 c 1
 343 53 355 49 363 39 c 1
 394 -1 418 -31 451 -32 c 0
 483 -34 515 -14 544 11 c 0
 574 36 594 62 620 103 c 0
 642 137 654 158 668 196 c 0
 683 237 693 276 690 313 c 0
 688 340 674 392 653 409 c 0
 634 424 635 429 604 436 c 0
 580 441 560 435 539 431 c 0
 516.067 426.632 480 404 466 393 c 0
 455 384 448 375 425 353 c 0
 402 332 383 312 368 293 c 128
 353 274 339 259 322 235 c 0
 306 211 293 188 281 159 c 0
 268 129 255 94 240 53 c 0
 226 12 216 -11 210 -15 c 0
 205 -20 198 -21 189 -18 c 0
 179 -16 172 -9 167 0 c 0
 161 10 158 18 158 26 c 0
 158 33 162 45 171 62 c 0
 203.827 124.007 206 115 232 180 c 0
 248 220 267 263 299 346 c 0
 331 430 353 489 372 546 c 0
 390 604 399 644 406 679 c 0
 414 714 414 741 407 758 c 0
 399 775 383 783 359 782 c 1
 354 784 351 787 351 792 c 128
 351 797 355 800 364 802 c 1
 389 804 411 800 431 792 c 0
 450 784 464 775 474 768 c 0
 484 760 495 753 505 747 c 0
 516 742 521 734 519 726 c 0
 518 717 511 710 501 706 c 0
 490 701 478 685 464 658 c 0
 451 631 438 594 415 533 c 0
 392 471 373 427 352 374 c 0
 332 321 323 294 325 293 c 0
 328 293 336 300 350 315 c 0
 363 331 382 349 405 371 c 0
 429 392 448 410 460 420 c 0
EndSplineSet
EndChar
StartChar: uni30F7
Encoding: 12535 12535 65535
Width: 1024
Flags: HW
Fore
832 816 m 1
 857 807 877 798 892 790 c 0
 908 782 922 772 934 762 c 0
 947 751 955 739 958 727 c 0
 962 715 959 705 950 696 c 128
 941 687 933 683 926 683 c 128
 919 683 913 688 908 698 c 0
 903 707 897 718 891 730 c 0
 885 743 878 754 869 764 c 0
 861 775 847 788 827 805 c 1
 822 812 824 816 832 816 c 1
744 771 m 1
 768 760 787 750 802 740 c 0
 817 731 830 720 842 708 c 0
 853 695 860 683 863 671 c 0
 865 658 861 648 851 641 c 0
 841 633 833 629 826 630 c 0
 819 630 813 636 810 646 c 0
 806 656 801 667 796 681 c 0
 790 694 784 706 776 717 c 0
 769 728 756 743 738 761 c 1
 734 769 736 772 744 771 c 1
117 678 m 1
 136 673 152 666 165 658 c 0
 179 651 193 643 207 635 c 0
 222 627 228 619 226 610 c 1
 232 611 246 612 268 614 c 0
 290 617 342 624 424 637 c 128
 506 650 567 658 606 661 c 128
 645 664 666 670 669 677 c 0
 673 684 678 689 684 691 c 0
 691 693 704 687 722 674 c 0
 741 660 758 648 774 637 c 0
 789 626 794 617 789 609 c 0
 783 601 774 596 763 592 c 0
 751 590 743 582 737 569 c 0
 732 556 726 530 718 491 c 0
 711 452 694 400 668 336 c 0
 642 271 605 214 556 164 c 0
 508 114 457 74 405 43 c 128
 353 12 305 -9 259 -21 c 1
 249 -19 247 -14 253 -7 c 1
 295 10 339 35 387 67 c 0
 434 99 479 140 520 190 c 0
 562 239 593 294 614 355 c 0
 636 416 649 468 655 512 c 0
 661 555 665 597 666 637 c 1
 601 634 529 627 452 614 c 0
 374 602 316 590 276 580 c 0
 237 568 214 563 206 562 c 1
 204 547 203 520 203 482 c 0
 202 442 202 409 203 380 c 0
 203 351 204 331 206 318 c 0
 207 306 204 294 195 282 c 0
 186 271 174 271 159 284 c 0
 144 296 138 311 140 328 c 0
 143 346 145 364 147 380 c 0
 149 398 150 432 150 484 c 0
 150 535 150 565 150 573 c 128
 150 581 149 590 146 602 c 0
 143 612 139 624 134 636 c 0
 129 647 121 656 110 662 c 1
 103 674 105 679 117 678 c 1
EndSplineSet
EndChar
StartChar: uni30F8
Encoding: 12536 12536 65535
Width: 1024
Flags: HW
Fore
830 815 m 1
 855.333 807.667 876 800.667 892 794 c 128
 908 787.333 922.667 779.167 936 769.5 c 128
 949.333 759.833 958.333 749.167 963 737.5 c 128
 967.667 725.833 965.833 715.167 957.5 705.5 c 128
 949.167 695.833 941.5 690.833 934.5 690.5 c 128
 927.5 690.167 921.167 694.5 915.5 703.5 c 128
 909.833 712.5 903.333 722.833 896 734.5 c 128
 888.667 746.167 880.333 756.833 871 766.5 c 128
 861.667 776.167 846.667 788.333 826 803 c 1
 820 809.667 821.333 813.667 830 815 c 1
738 764 m 1
 762.667 754.667 782.833 746 798.5 738 c 128
 814.167 730 828.167 720.333 840.5 709 c 128
 852.833 697.667 860.833 686 864.5 674 c 128
 868.167 662 865.333 651.667 856 643 c 128
 846.667 634.333 838.5 630 831.5 630 c 128
 824.5 630 818.667 634.833 814 644.5 c 128
 809.333 654.167 803.667 665.333 797 678 c 128
 790.333 690.667 782.833 702.167 774.5 712.5 c 128
 766.167 722.833 752.333 736.333 733 753 c 1
 727.667 760.333 729.333 764 738 764 c 1
503 778 m 1
 530.333 774.667 553.333 768.667 572 760 c 128
 590.667 751.333 604.833 744.833 614.5 740.5 c 128
 624.167 736.167 628.833 731 628.5 725 c 128
 628.167 719 624.667 713.333 618 708 c 128
 611.333 702.667 606.333 691.167 603 673.5 c 128
 599.667 655.833 597 625.667 595 583 c 1
 663.667 589.667 701.5 594.333 708.5 597 c 128
 715.5 599.667 726.333 605 741 613 c 1
 750.333 614.333 769.333 607 798 591 c 128
 826.667 575 837.667 564 831 558 c 128
 824.333 552 813 549.167 797 549.5 c 128
 781 549.833 761.833 550.667 739.5 552 c 128
 717.167 553.333 689.667 553.333 657 552 c 128
 624.333 550.667 603 550 593 550 c 1
 592.333 531.333 591.167 497.333 589.5 448 c 128
 587.833 398.667 587.667 345 589 287 c 1
 619.667 288.333 661.667 289.833 715 291.5 c 128
 768.333 293.167 798.5 295 805.5 297 c 128
 812.5 299 819 301.333 825 304 c 128
 831 306.667 837.833 308.167 845.5 308.5 c 128
 853.167 308.833 866 303.667 884 293 c 128
 902 282.333 919.333 271.5 936 260.5 c 128
 952.667 249.5 958.667 240.667 954 234 c 128
 949.333 227.333 942.667 224.667 934 226 c 128
 925.333 227.333 913.5 229.5 898.5 232.5 c 128
 883.5 235.5 865 239.667 843 245 c 128
 821 250.333 778 253.333 714 254 c 128
 650 254.667 609 254.667 591 254 c 1
 594.333 181.333 596 129.667 596 99 c 128
 596 68.333 597.167 43.333 599.5 24 c 0
 601.833 4.66699 601.167 -13.667 597.5 -31 c 128
 593.833 -48.333 587.333 -58.5 578 -61.5 c 128
 568.667 -64.5 561.333 -61.667 556 -53 c 128
 550.667 -44.333 543.833 -34 535.5 -22 c 128
 527.167 -10 524.333 1 527 11 c 128
 529.667 21 532 35.5 534 54.5 c 128
 536 73.5 537.333 92 538 110 c 128
 538.667 128 539.333 175.333 540 252 c 1
 472.667 248.667 403 239.667 331 225 c 128
 259 210.333 220.5 199.833 215.5 193.5 c 128
 210.5 187.167 204.333 183.833 197 183.5 c 128
 189.667 183.167 181.667 184.667 173 188 c 128
 164.333 191.333 152 196.333 136 203 c 128
 120 209.667 108.167 218.833 100.5 230.5 c 128
 92.833 242.167 84.333 257.667 75 277 c 1
 75 290.333 80.667 293.667 92 287 c 1
 98.667 275.667 110.667 265.833 128 257.5 c 128
 145.333 249.167 207.333 250.667 314 262 c 1
 318 301.333 318.833 347.833 316.5 401.5 c 128
 314.167 455.167 310.167 485.667 304.5 493 c 128
 298.833 500.333 293 506.333 287 511 c 1
 279.667 511 268.833 512.833 254.5 516.5 c 128
 240.167 520.167 226.5 527.667 213.5 539 c 128
 200.5 550.333 188 566 176 586 c 1
 173.333 596.667 177.667 599.333 189 594 c 1
 201 580.667 216.833 571.167 236.5 565.5 c 128
 256.167 559.833 295.667 558.833 355 562.5 c 128
 414.333 566.167 475.333 571 538 577 c 1
 537.333 627 537.333 663.667 538 687 c 128
 538.667 710.333 536.667 727.333 532 738 c 128
 527.333 748.667 516 755.667 498 759 c 1
 490 767.667 491.667 774 503 778 c 1
512 283 m 0
 520.667 283.667 530 284.333 540 285 c 1
 540.667 344.333 540.667 398.5 540 447.5 c 128
 539.333 496.5 538.667 529.333 538 546 c 1
 516.667 544.667 490.167 542.167 458.5 538.5 c 128
 426.833 534.833 400.5 531.167 379.5 527.5 c 128
 358.5 523.833 342.667 521 332 519 c 1
 340 515 350.333 508.5 363 499.5 c 128
 375.667 490.5 382.333 482.167 383 474.5 c 128
 383.667 466.833 382.5 459.833 379.5 453.5 c 128
 376.5 447.167 374.333 441 373 435 c 128
 371.667 429 370.333 410.167 369 378.5 c 128
 367.667 346.833 367.667 310 369 268 c 1
 418.333 273.333 466 278.333 512 283 c 0
EndSplineSet
EndChar
StartChar: uni30F9
Encoding: 12537 12537 65535
Width: 1024
Flags: HW
Fore
853.131 816.217 m 1
 877.728 806.704 897.706 797.93 913.064 789.893 c 0
 928.422 781.857 942.321 772.443 954.762 761.651 c 0
 967.201 750.859 975.237 739.449 978.87 727.42 c 0
 982.502 715.391 979.745 704.925 970.602 696.021 c 0
 961.458 687.117 953.385 682.805 946.382 683.083 c 0
 939.38 683.361 933.448 688.229 928.587 697.689 c 0
 923.727 707.149 918.151 718.009 911.863 730.271 c 0
 905.575 742.532 898.202 753.885 889.747 764.328 c 128
 881.292 774.771 867.41 788.198 848.1 804.611 c 1
 842.704 811.775 844.38 815.645 853.131 816.217 c 1
776.035 769.43 m 1
 799.795 757.981 819.129 747.59 834.039 738.255 c 128
 848.949 728.92 862.054 718.07 873.352 705.705 c 0
 884.65 693.34 891.604 681.021 894.21 668.746 c 0
 896.817 656.473 893.094 646.426 883.041 638.605 c 0
 872.988 630.785 864.475 627.18 857.501 627.79 c 0
 850.527 628.4 845.138 633.723 841.331 643.76 c 128
 837.524 653.797 832.854 665.414 827.315 678.614 c 0
 821.778 691.814 815.309 703.924 807.908 714.944 c 0
 800.508 725.964 787.902 740.618 770.096 758.907 c 1
 765.422 766.677 767.401 770.185 776.035 769.43 c 1
180 624 m 1
 192.667 604 206.167 590 220.5 582 c 128
 234.833 574 250.667 569.667 268 569 c 128
 285.333 568.333 304.667 568 326 568 c 128
 347.333 568 380.5 571.5 425.5 578.5 c 128
 470.5 585.5 509 591.833 541 597.5 c 128
 573 603.167 614.667 609.5 666 616.5 c 128
 717.333 623.5 744.833 629 748.5 633 c 128
 752.167 637 756.333 641.333 761 646 c 128
 765.667 650.667 777.167 647.5 795.5 636.5 c 128
 813.833 625.5 829.5 614 842.5 602 c 128
 855.5 590 865.167 581.5 871.5 576.5 c 128
 877.833 571.5 878.5 565.167 873.5 557.5 c 128
 868.5 549.833 859 546.167 845 546.5 c 128
 831 546.833 818 542.5 806 533.5 c 128
 794 524.5 775.333 511.167 750 493.5 c 128
 724.667 475.833 694.5 457.167 659.5 437.5 c 128
 624.5 417.833 586 398 544 378 c 1
 532 376 529 379.333 535 388 c 1
 569 410 599.667 431.333 627 452 c 128
 654.333 472.667 678.333 493 699 513 c 128
 719.667 533 733.333 550.167 740 564.5 c 128
 746.667 578.833 749.5 587 748.5 589 c 128
 747.5 591 730.5 591 697.5 589 c 128
 664.5 587 622.333 582.833 571 576.5 c 128
 519.667 570.167 475.167 562 437.5 552 c 128
 399.833 542 370.167 534 348.5 528 c 128
 326.833 522 311.833 515.5 303.5 508.5 c 128
 295.167 501.5 287 497.833 279 497.5 c 128
 271 497.167 263.833 498.833 257.5 502.5 c 128
 251.167 506.167 244.167 510.333 236.5 515 c 128
 228.833 519.667 217.333 528.833 202 542.5 c 128
 186.667 556.167 174 582 164 620 c 1
 166.667 630 172 631.333 180 624 c 1
74 197 m 1
 83.333 210.333 90.333 211.667 95 201 c 1
 95 184.333 105 172.833 125 166.5 c 128
 145 160.167 190.5 161.333 261.5 170 c 128
 332.5 178.667 395 185 455 189 c 1
 459.667 275 460.667 335.167 458 369.5 c 128
 455.333 403.833 452 428.167 448 442.5 c 128
 444 456.833 431.667 467.333 411 474 c 1
 407.667 483.333 411 488 421 488 c 0
 441.667 486 458 482.667 470 478 c 128
 482 473.333 496.333 465 513 453 c 128
 529.667 441 537.167 431.167 535.5 423.5 c 128
 533.833 415.833 531.167 410.667 527.5 408 c 128
 523.833 405.333 521 398 519 386 c 128
 517 374 514.333 361.167 511 347.5 c 128
 507.667 333.833 508 282 512 192 c 1
 555.333 194.667 610.333 196.667 669 198 c 128
 727.667 199.333 763.5 201.667 770.5 205 c 128
 777.5 208.333 784 211.667 790 215 c 128
 796 218.333 802.833 220.5 810.5 221.5 c 128
 818.167 222.5 831.333 217 850 205 c 128
 868.667 193 886.667 181.167 904 169.5 c 128
 921.333 157.833 927.667 148 923 140 c 128
 918.333 132 911.667 128.667 903 130 c 128
 894.333 131.333 882.5 133.5 867.5 136.5 c 128
 852.5 139.5 834 143.667 812 149 c 128
 790 154.333 724.667 157.833 622 159.5 c 128
 519.333 161.167 426.5 152.5 345.5 133.5 c 128
 264.5 114.5 221.5 101.167 216.5 93.5 c 128
 211.5 85.833 205.333 81.833 198 81.5 c 128
 190.667 81.167 182.667 83.667 174 89 c 128
 165.333 94.333 153 100.667 137 108 c 128
 121 115.333 107.833 124.833 97.5 136.5 c 128
 87.167 148.167 79.333 168.333 74 197 c 1
EndSplineSet
EndChar
StartChar: uni30FA
Encoding: 12538 12538 65535
Width: 1024
Flags: HW
Fore
861 817 m 1
 886 806 905 797 920 788 c 0
 935 780 949 770 961 758 c 0
 973 747 981 736 984 723 c 0
 987 711 984 701 975 692 c 0
 965 684 957 680 950 680 c 0
 943 681 937 686 933 695 c 0
 928 705 923 716 917 729 c 0
 911 741 904 753 896 763 c 0
 888 774 875 788 856 805 c 1
 851 812 853 816 861 817 c 1
780 777 m 1
 803 765 822 754 837 744 c 0
 851 734 864 723 875 710 c 128
 886 697 892 685 894 672 c 0
 897 660 893 650 882 643 c 0
 872 635 863 632 856 633 c 128
 849 634 844 639 841 649 c 0
 837 659 833 671 828 685 c 0
 823 698 817 710 810 722 c 0
 803 733 791 748 774 767 c 1
 769 775 771 778 780 777 c 1
116 685 m 1
 137 664 164 652 197 647 c 128
 230 642 268 642 312 647 c 128
 356 652 401 657 449 662 c 0
 495 667 545 673 597 680 c 0
 648 687 676 693 680 700 c 0
 684 706 688 712 691 718 c 0
 694 725 705 722 725 710 c 0
 743 699 760 687 773 675 c 0
 787 663 797 654 803 647 c 128
 809 640 809 634 803 628 c 0
 798 622 789 618 777 614 c 0
 765 612 758 606 755 598 c 128
 752 590 744 559 729 505 c 0
 715 451 697 402 674 358 c 0
 651 313 624 271 592 232 c 0
 560 192 525 156 485 122 c 0
 447 90 404 61 359 36 c 128
 314 11 266 -11 215 -31 c 1
 198 -30 196 -26 207 -19 c 0
 250 6 291 32 333 57 c 0
 373 82 413 112 450 146 c 128
 487 180 520 217 549 256 c 0
 577 296 598 332 612 364 c 128
 626 396 637 426 645 453 c 1
 600 450 550 445 493 437 c 128
 436 429 386 420 343 410 c 0
 299 401 273 394 263 390 c 0
 255 385 245 382 236 380 c 0
 227 379 215 382 200 390 c 128
 185 398 173 408 163 418 c 0
 152 430 144 444 138 461 c 1
 142 476 147 479 154 470 c 0
 164 459 173 452 182 447 c 128
 191 442 202 439 216 436 c 128
 230 433 267 437 326 446 c 128
 385 455 445 463 505 468 c 128
 565 473 614 478 652 481 c 1
 655 493 659 516 665 549 c 128
 671 582 675 615 676 647 c 1
 603 648 537 644 478 637 c 128
 419 630 371 622 333 615 c 128
 295 608 271 600 263 593 c 0
 253 586 246 581 239 579 c 128
 232 577 224 577 214 580 c 128
 204 583 193 586 180 590 c 0
 167 595 155 603 143 614 c 0
 132 625 118 644 102 670 c 1
 97 685 102 690 116 685 c 1
EndSplineSet
EndChar
StartChar: uni33CB
Encoding: 13259 13259 65535
Width: 1024
Flags: HW
Fore
414.5 20 m 1
 414.5 46 l 1
 465.167 53.333 490.5 70 490.5 96 c 2
 490.5 378 l 1
 253.5 378 l 1
 253.5 96 l 2
 253.5 70 276.167 53.333 321.5 46 c 1
 321.5 20 l 1
 252.833 22 184.167 22 115.5 20 c 1
 115.5 46 l 1
 160.833 53.333 183.5 70 183.5 96 c 2
 183.5 664 l 2
 183.5 690 160.833 706.667 115.5 714 c 1
 115.5 740 l 1
 184.167 738 252.833 738 321.5 740 c 1
 321.5 714 l 1
 276.167 706.667 253.5 690 253.5 664 c 2
 253.5 412 l 1
 490.5 412 l 1
 490.5 664 l 2
 490.5 690 465.167 706.667 414.5 714 c 1
 414.5 740 l 1
 450.109 739.854 486.504 738.099 519 738.506 c 1
 548.312 738.506 576.123 740 602.5 740 c 2
 628.5 740 l 0
 718.688 739.401 787.196 722.558 834 689.5 c 0
 881.667 655.833 905.5 612.667 905.5 560 c 0
 905.5 506.667 881.667 462.833 834 428.5 c 128
 786.333 394.167 716.167 377 623.5 377 c 2
 560.5 377 l 1
 560.5 96 l 2
 560.5 70 591.833 53.333 654.5 46 c 1
 654.5 20 l 1
 565.076 21.8796 499.35 21.2079 414.5 20 c 1
600.5 703 m 2
 574.01 703 560.5 682.272 560.5 664 c 2
 560.5 414 l 1
 623.5 414 l 2
 708.167 414 764.333 429.5 792 460.5 c 128
 819.667 491.5 833.5 524.667 833.5 560 c 0
 833.5 596 819.667 628.833 792 658.5 c 128
 764.333 688.167 708.167 703 623.5 703 c 2
 600.5 703 l 2
EndSplineSet
EndChar
StartChar: uniFB03
Encoding: 64259 64259 65535
Width: 800
VWidth: 1000
Flags: HW
Fore
392 651 m 1
 377 657 373 670 373 689 c 0
 373 721 351 738 309 738 c 0
 251 738 205 666 205 564 c 2
 205 482 l 1
 376 482 l 1
 376 564 l 2
 376 595 382 624 392 651 c 1
301 46 m 1
 351 54 376 69 376 94 c 2
 376 446 l 1
 205 446 l 1
 205 94 l 2
 205 69 237 54 301 46 c 1
535.427 46.501 m 1
 592.203 54.1514 618 69.7129 618 94 c 2
 618 446 l 1
 445 446 l 1
 445 94 l 2
 445 69.7129 473.414 54.1514 535.427 46.501 c 1
782 20 m 1
 52 20 l 1
 52 45 l 1
 108 52 136 68 136 94 c 2
 136 446 l 1
 25 446 l 1
 25 482 l 1
 136 482 l 1
 136 564 l 2
 136 678 216 771 309 771 c 0
 365 770 414 749 438 722 c 1
 469 752 501.68 771 549 771 c 16
 696 771 703 675 703 675 c 1
 703 647 677 622 647 622 c 128
 617 622 594 636 594 665 c 128
 594 694 594 696 606 714.781 c 1
 596.456 729.854 577.254 738 549 738 c 0
 491 738 445 666 445 564 c 2
 445 482 l 1
 549 482 l 1
 624 488 665 500 673 517 c 1
 686 517 l 1
 686 94 l 2
 686 68 718 52 782 45 c 1
 782 20 l 1
EndSplineSet
EndChar
StartChar: uniFB04
Encoding: 64260 64260 65535
Width: 800
VWidth: 1000
Flags: HW
Fore
614.5 651 m 1
 588.5 648 576.5 670 576.5 689 c 0
 576.5 721 574.5 738 532.5 738 c 0
 476.5 738 441.5 666 441.5 564 c 2
 441.5 482 l 1
 614.5 482 l 1
 614.603 525.003 614.198 623.624 614.5 651 c 1
388.5 651 m 1
 373.5 657 369.5 670 369.5 689 c 0
 369.5 721 347.5 738 305.5 738 c 0
 247.5 738 201.5 666 201.5 564 c 2
 201.5 482 l 1
 372.5 482 l 1
 372.5 564 l 2
 372.5 595 378.5 624 388.5 651 c 1
297.5 46 m 1
 347.5 54 372.5 69 372.5 94 c 2
 372.5 446 l 1
 201.5 446 l 1
 201.5 94 l 2
 201.5 69 233.5 54 297.5 46 c 1
638.926 744.729 m 1
 647.88 748.97 667.719 753.746 670.5 759 c 1
 682.5 759 l 1
 682.5 517 l 0
 682.5 94 l 2
 682.5 68 714.5 52 778.5 45 c 1
 778.5 20 l 1
 48.5 20 l 1
 48.5 45 l 1
 104.5 52 132.5 68 132.5 94 c 2
 132.5 446 l 1
 21.5 446 l 1
 21.5 482 l 1
 132.5 482 l 1
 132.5 564 l 2
 132.5 678 212.5 771 305.5 771 c 0
 361.5 770 410.5 749 434.5 722 c 1
 465.5 752 489.117 771 531.5 771 c 16
 582.074 771 616.078 759.637 638.926 744.729 c 1
614.5 446 m 1
 441.5 446 l 1
 441.5 94 l 2
 441.5 69.7129 469.914 54.1514 531.927 46.501 c 1
 588.703 54.1514 614.374 69.7129 614.5 94 c 2
 614.5 446 l 1
EndSplineSet
EndChar
StartChar: uniFF02
Encoding: 65282 65282 65535
Width: 1024
Flags: HW
Fore
578 817 m 0
 606 817 626 801 626 766 c 1
 626 740 620 720 614 697 c 0
 608 669 598 642 584 596 c 1
 577 591 570 591 563 596 c 1
 550 648 546 676 540 697 c 0
 532 717 530 740 530 766 c 1
 530 801 551 817 578 817 c 0
447 817 m 0
 476 817 496 801 496 766 c 1
 496 740 488 720 483 697 c 0
 477 669 467 642 453 596 c 1
 446 591 439 591 432 596 c 1
 418 648 416 676 408 697 c 0
 400 717 399 740 399 766 c 1
 399 801 420 817 447 817 c 0
EndSplineSet
EndChar
StartChar: uniFF07
Encoding: 65287 65287 65535
Width: 1024
Flags: HW
Fore
512 817 m 0
 539.5 817 559.5 801 559.5 766 c 1
 559.5 740 553.25 720 548.25 697 c 0
 542 669 532 642 518.25 596 c 1
 510.75 591 504.5 591 497 596 c 1
 483.25 648 479.5 676 473.25 697 c 0
 465.75 717 464.5 740 464.5 766 c 1
 464.5 801 484.5 817 512 817 c 0
EndSplineSet
EndChar
StartChar: uni3095.vert
Encoding: 65536 -1 65535
Width: 1024
Flags: HW
Fore
766 618 m 1
 765 624 767 626 772 624 c 0
 805 607 832 590 852 574 c 128
 872 558 891 540 909 519 c 128
 927 498 941 477 952 457 c 0
 962 436 968 419 969 406 c 0
 969 393 962 380 947 367 c 1
 932 358 922 362 917 377 c 0
 911 391 902 400 890 402 c 128
 878 404 852 402 814 395 c 1
 807 397 807 400 812 404 c 1
 848 414 873 421 885 425 c 0
 897 428 904 430 906 431 c 0
 907 432 909 433 910 436 c 0
 911 438 910 444 906 454 c 0
 903 464 894 480 880 501 c 0
 865 522 849 541 832 560 c 128
 815 579 793 598 766 618 c 1
483 749 m 1
 521 739 544 730 554 721 c 0
 563 711 571 705 576 702 c 0
 581 698 583 694 584 689 c 0
 584 684 580 678 574 672 c 0
 567 666 561 657 557 645 c 128
 553 633 543 607 526 569 c 1
 556 577 580 582 600 584 c 128
 620 586 638 582 656 571 c 0
 673 560 685 542 690 518 c 0
 695 493 697 466 696 435 c 128
 695 404 692 373 686 342 c 0
 679 311 673 286 667 268 c 0
 660 249 653 234 645 220 c 0
 637 207 629 197 620 189 c 0
 612 181 601 175 588 172 c 0
 567 169 559 176 563 193 c 0
 567 211 560 228 541 245 c 0
 523 262 504 277 487 289 c 1
 483 296 485 298 492 297 c 1
 513 287 532 275 550 264 c 0
 568 252 579 245 584 243 c 128
 589 241 595 241 601 243 c 0
 606 246 614 256 623 275 c 128
 632 294 640 318 646 348 c 0
 652 377 655 405 656 433 c 0
 658 460 658 484 658 503 c 0
 657 523 653 538 644 550 c 0
 636 561 621 566 601 565 c 0
 580 564 552 558 516 547 c 1
 501 509 487 473 474 438 c 128
 461 403 445 365 426 322 c 0
 408 280 394 247 384 223 c 0
 374 200 366 185 359 178 c 128
 352 171 346 169 341 173 c 0
 335 177 331 183 329 192 c 0
 327 200 327 208 328 215 c 0
 330 222 335 231 342 240 c 0
 350 250 355 258 360 264 c 0
 364 271 376 295 396 336 c 128
 416 377 433 413 446 443 c 128
 459 473 471 505 484 538 c 1
 471 533 456 528 440 523 c 0
 424 517 414 513 410 509 c 0
 406 506 401 504 395 502 c 0
 388 501 380 504 369 512 c 0
 359 519 349 528 341 538 c 128
 333 548 329 559 329 572 c 1
 331 577 335 578 339 576 c 1
 342 565 352 557 369 551 c 0
 386 546 404 544 421 547 c 0
 438 549 462 554 493 561 c 1
 509 606 517 640 519 662 c 0
 522 685 520 702 513 713 c 0
 507 724 496 732 479 738 c 1
 475 743 476 747 483 749 c 1
EndSplineSet
EndChar
StartChar: uni3096.vert
Encoding: 65537 -1 65535
Width: 1024
Flags: HW
Fore
390 719 m 1
 389 722 389 725 390 727 c 0
 391 730 394 730 400 728 c 1
 427 712 446 698 457 687 c 0
 468 675 473 664 472 652 c 0
 472 641 469 633 465 628 c 0
 461 624 455 611 447 588 c 0
 440 565 433 542 425 517 c 0
 418 492 414 467 414 439 c 0
 413 412 416 389 421 368 c 0
 426 348 430 337 432 337 c 128
 434 337 437 341 442 349 c 128
 447 357 456 376 470 404 c 0
 484 433 496 457 506 476 c 1
 512 479 515 478 514 471 c 1
 505 451 495 426 482 397 c 0
 469 367 461 341 460 319 c 0
 458 297 458 283 459 277 c 128
 460 271 462 265 464 260 c 0
 467 255 469 250 472 244 c 128
 475 238 474 230 470 222 c 128
 466 214 459 211 450 212 c 0
 440 214 432 220 426 231 c 0
 419 242 413 259 406 281 c 128
 399 303 394 327 390 352 c 128
 386 377 384 405 384 436 c 128
 384 467 386 496 392 522 c 0
 398 549 403 577 408 606 c 128
 413 635 416 654 416 662 c 0
 416 671 415 680 412 690 c 128
 409 700 402 710 390 719 c 1
736 769 m 1
 776 757 802 744 816 733 c 0
 830 721 837 713 837 708 c 128
 837 703 836 698 833 695 c 0
 831 691 828 686 826 679 c 0
 823 673 822 659 821 637 c 128
 820 615 819 599 819 588 c 1
 844 592 862 597 871 602 c 0
 881 607 887 611 889 616 c 0
 892 621 898 623 910 622 c 128
 922 621 934 619 948 615 c 0
 962 612 967 607 963 601 c 0
 960 595 954 590 946 588 c 0
 937 586 923 582 904 577 c 128
 885 572 857 566 819 561 c 1
 820 545 821 523 823 495 c 128
 825 467 827 441 829 415 c 0
 831 390 829 365 824 340 c 0
 820 316 812 294 803 274 c 0
 793 254 779 235 762 218 c 0
 744 200 726 185 709 174 c 0
 692 162 671 151 646 139 c 1
 637 139 636 141 641 146 c 0
 664 162 683 176 697 188 c 0
 710 201 724 215 737 231 c 0
 750 246 760 264 768 284 c 0
 775 304 781 325 784 347 c 128
 787 369 788 392 789 415 c 0
 789 439 789 465 788 493 c 128
 787 521 786 542 785 556 c 1
 751 551 723 548 700 547 c 0
 677 547 658 548 641 551 c 0
 625 553 610 559 597 567 c 128
 584 575 573 587 564 602 c 1
 564 608 567 610 572 607 c 1
 584 594 597 585 612 579 c 0
 626 574 646 571 673 571 c 128
 700 571 737 575 784 582 c 1
 784 593 783 608 781 626 c 0
 780 644 778 662 778 680 c 0
 777 697 774 712 769 724 c 128
 764 736 752 747 734 758 c 0
 730 760 728 762 729 765 c 128
 730 768 732 769 736 769 c 1
EndSplineSet
EndChar
